<svg width="190" height="262" viewBox="0 0 190 262" fill="none" xmlns="http://www.w3.org/2000/svg">
<path d="M166.001 261.689C74.8175 261.689 0 186.872 0 95.6881C0 66.4625 8.18317 37.2369 22.2115 11.5183C29.2256 0.997131 43.2539 -3.67896 53.7751 3.33518C65.4653 10.3493 68.9724 24.3776 63.1273 34.8988C52.6061 53.6032 46.761 74.6456 46.761 95.6881C46.761 161.153 100.536 214.929 166.001 214.929C178.861 214.929 189.382 225.45 189.382 238.309C189.382 251.168 178.861 261.689 166.001 261.689Z" fill="#0470BE"/>
<path opacity="0.5" d="M165.999 261.681C178.911 261.681 189.379 251.213 189.379 238.3C189.379 225.388 178.911 214.92 165.999 214.92C153.086 214.92 142.618 225.388 142.618 238.3C142.618 251.213 153.086 261.681 165.999 261.681Z" fill="#2FACDF"/>
</svg>
