<svg width="32" height="32" viewBox="0 0 32 32" fill="none" xmlns="http://www.w3.org/2000/svg">
<path fill-rule="evenodd" clip-rule="evenodd" d="M0.5 31.092H5.64643V22.0858H0.5V31.092Z" stroke="black" stroke-linejoin="round"/>
<path d="M5.64642 29.8054H27.5188C27.5188 27.8755 23.0156 25.9456 17.8692 25.9456H8.86294" stroke="black" stroke-linecap="round" stroke-linejoin="round"/>
<path d="M5.64642 23.3724H10.1496C13.1757 23.3724 14.6527 25.3023 15.296 25.9456" stroke="black" stroke-linejoin="round"/>
<path fill-rule="evenodd" clip-rule="evenodd" d="M23.6728 11.7929C23.6728 13.9261 21.9449 15.6527 19.813 15.6527C17.6823 15.6527 15.9531 13.9261 15.9531 11.7929C15.9531 9.66096 17.6823 7.93304 19.813 7.93304C21.9449 7.93304 23.6728 9.66096 23.6728 11.7929V11.7929Z" stroke="black" stroke-linejoin="round"/>
<path fill-rule="evenodd" clip-rule="evenodd" d="M27.9762 10.0439L30 8.87564L27.4268 4.41883L25.3952 5.59093C24.5306 4.81124 23.5065 4.20396 22.3717 3.83728V1.49951H17.2253V3.83728C16.0918 4.20396 15.0676 4.81124 14.203 5.59093L12.1715 4.41883L9.59827 8.87564L11.6221 10.0439C11.3815 11.1787 11.3661 12.3392 11.6234 13.5435L9.59955 14.7117L12.1728 19.1685L14.2043 17.9951C15.0689 18.7761 16.0918 19.3821 17.2253 19.7488V22.0852H22.3717V19.7488C23.5065 19.3821 24.5294 18.7761 25.394 17.9951L27.4255 19.1685L29.9987 14.7117L27.9749 13.5435C28.2155 12.4164 28.2322 11.2559 27.9762 10.0439V10.0439Z" stroke="black" stroke-linejoin="round"/>
</svg>
