<svg width="233" height="236" viewBox="0 0 233 236" fill="none" xmlns="http://www.w3.org/2000/svg">
<path d="M148.908 149C154.818 141.223 158.325 131.521 158.325 121C158.325 95.4152 137.585 74.6748 112 74.6748C103.214 74.6748 94.9996 77.1206 88 81.3686" stroke="#2FACDF" stroke-width="23.5165" stroke-linecap="round"/>
<path d="M148 190.213C172.959 177.205 190 151.093 190 121C190 77.9218 155.078 43 112 43C84.8129 43 60.8745 56.9093 46.9128 78" stroke="#0470BE" stroke-width="23.5165" stroke-linecap="round" stroke-linejoin="round"/>
<path d="M148 223.915C190.509 209.046 221 168.584 221 121C221 60.801 172.199 12 112 12C67.0713 12 28.4914 39.1831 11.8098 78" stroke="#023F79" stroke-width="23.5165" stroke-linecap="round"/>
</svg>
