<svg width="208" height="274" viewBox="0 0 208 274" fill="none" xmlns="http://www.w3.org/2000/svg">
<path d="M171.451 163.459C167.261 163.459 163.071 161.065 161.275 157.473C150.5 138.319 130.148 126.945 108 126.945C86.4504 126.945 66.0981 138.319 55.3234 157.473C51.7318 162.861 44.5486 164.656 38.5627 161.663C33.1753 158.072 31.3795 150.889 34.3725 144.903C49.3374 119.164 77.4715 103.002 108 103.002C138.528 103.002 166.662 119.164 181.627 146.1C184.62 152.086 182.825 159.269 177.437 162.262C175.641 162.861 173.846 163.459 171.451 163.459Z" fill="#2FACDF"/>
<g filter="url(#filter0_d)">
<path d="M56.9287 150.878C56.9287 157.462 51.5414 162.85 44.9568 162.85C38.3722 162.85 32.9849 157.462 32.9849 150.878C32.9849 144.294 38.3722 138.906 44.9568 138.906C51.5826 138.906 56.9287 144.252 56.9287 150.878Z" fill="white"/>
</g>
<g filter="url(#filter1_d)">
<path d="M171.451 163.457C178.063 163.457 183.423 158.097 183.423 151.485C183.423 144.874 178.063 139.514 171.451 139.514C164.839 139.514 159.479 144.874 159.479 151.485C159.479 158.097 164.839 163.457 171.451 163.457Z" fill="white"/>
</g>
<defs>
<filter id="filter0_d" x="8.98486" y="114.906" width="71.9439" height="71.9435" filterUnits="userSpaceOnUse" color-interpolation-filters="sRGB">
<feFlood flood-opacity="0" result="BackgroundImageFix"/>
<feColorMatrix in="SourceAlpha" type="matrix" values="0 0 0 0 0 0 0 0 0 0 0 0 0 0 0 0 0 0 127 0"/>
<feOffset/>
<feGaussianBlur stdDeviation="12"/>
<feColorMatrix type="matrix" values="0 0 0 0 1 0 0 0 0 1 0 0 0 0 1 0 0 0 1 0"/>
<feBlend mode="normal" in2="BackgroundImageFix" result="effect1_dropShadow"/>
<feBlend mode="normal" in="SourceGraphic" in2="effect1_dropShadow" result="shape"/>
</filter>
<filter id="filter1_d" x="135.479" y="115.514" width="71.9439" height="71.9435" filterUnits="userSpaceOnUse" color-interpolation-filters="sRGB">
<feFlood flood-opacity="0" result="BackgroundImageFix"/>
<feColorMatrix in="SourceAlpha" type="matrix" values="0 0 0 0 0 0 0 0 0 0 0 0 0 0 0 0 0 0 127 0"/>
<feOffset/>
<feGaussianBlur stdDeviation="12"/>
<feColorMatrix type="matrix" values="0 0 0 0 1 0 0 0 0 1 0 0 0 0 1 0 0 0 1 0"/>
<feBlend mode="normal" in2="BackgroundImageFix" result="effect1_dropShadow"/>
<feBlend mode="normal" in="SourceGraphic" in2="effect1_dropShadow" result="shape"/>
</filter>
</defs>
</svg>
