<svg xmlns="http://www.w3.org/2000/svg">

    <symbol id="circle-azure" width="295" height="120" viewBox="0 0 295 120" fill="none">
        <g>
           <path d="M270.522 118.071C262.339 118.071 254.156 113.395 250.649 106.381C229.606 68.9724 189.86 46.761 146.606 46.761C104.521 46.761 64.7741 68.9724 43.7316 106.381C36.7175 116.902 22.6892 120.409 10.999 114.564C0.477743 107.55 -3.02933 93.5219 2.81579 81.8317C32.0414 31.5636 86.9855 0 146.606 0C206.226 0 261.17 31.5636 290.396 84.1697C296.241 95.86 292.734 109.888 282.212 115.733C278.705 116.902 275.198 118.071 270.522 118.071Z" fill="#2FACDF"/>

       </g>
    </symbol>


    <symbol id="circle-blue" width="295" height="120" viewBox="0 0 295 120" fill="none">
        <g>
            <path d="M3.25434 82.8222C49.8088 3.55633 152.424 -23.6492 230.932 22.46C256.094 37.2386 277.079 59.1308 292.06 84.3307C297.538 95.7483 294.401 110.308 282.991 115.907C270.983 122.522 257.114 118.477 251.04 108.076C240.308 89.4715 225.175 73.7497 207.058 63.1092C150.693 30.0052 76.9384 49.5591 43.5147 106.468C36.9494 117.646 22.5191 121.472 11.4475 114.97C0.37589 108.467 -3.31103 94.0007 3.25434 82.8222Z" fill="#0470BE"/>
        </g>
    </symbol>

    <symbol id="dot-blue" width="47" height="47" viewBox="0 0 47 47" fill="none">
        <g>
            <path opacity="0.5" d="M23.3805 46.761C36.2932 46.761 46.761 36.2932 46.761 23.3805C46.761 10.4678 36.2932 0 23.3805 0C10.4678 0 0 10.4678 0 23.3805C0 36.2932 10.4678 46.761 23.3805 46.761Z" fill="#2FACDF"/>
        </g>
    </symbol>

    <symbol id="dot-white" width="95" height="95" viewBox="0 0 95 95" fill="none">
        <g filter="url(#filter0_d)">
        <path d="M70.761 47.3805C70.761 60.2398 60.2397 70.761 47.3805 70.761C34.5212 70.761 24 60.2398 24 47.3805C24 34.5212 34.5212 24 47.3805 24C60.3203 24 70.761 34.4407 70.761 47.3805Z" fill="white"/>
        </g>
        <defs>
        <filter id="filter0_d" x="0" y="0" width="94.761" height="94.761" filterUnits="userSpaceOnUse" color-interpolation-filters="sRGB">
        <feFlood flood-opacity="0" result="BackgroundImageFix"/>
        <feColorMatrix in="SourceAlpha" type="matrix" values="0 0 0 0 0 0 0 0 0 0 0 0 0 0 0 0 0 0 127 0"/>
        <feOffset/>
        <feGaussianBlur stdDeviation="12"/>
        <feColorMatrix type="matrix" values="0 0 0 0 1 0 0 0 0 1 0 0 0 0 1 0 0 0 1 0"/>
        <feBlend mode="normal" in2="BackgroundImageFix" result="effect1_dropShadow"/>
        <feBlend mode="normal" in="SourceGraphic" in2="effect1_dropShadow" result="shape"/>
        </filter>
        </defs>        
    </symbol>
</svg>