<svg width="295" height="120" viewBox="0 0 295 120" fill="none" xmlns="http://www.w3.org/2000/svg">
<path d="M3.25434 82.8222C49.8088 3.55633 152.424 -23.6492 230.932 22.46C256.094 37.2386 277.079 59.1308 292.06 84.3307C297.538 95.7483 294.401 110.308 282.991 115.907C270.983 122.522 257.114 118.477 251.04 108.076C240.308 89.4715 225.175 73.7497 207.058 63.1092C150.693 30.0052 76.9384 49.5591 43.5147 106.468C36.9494 117.646 22.5191 121.472 11.4475 114.97C0.37589 108.467 -3.31103 94.0007 3.25434 82.8222Z" fill="#0470BE"/>
<path opacity="0.5" d="M23.6979 118.761C36.6105 118.761 47.0784 108.293 47.0784 95.3805C47.0784 82.4678 36.6105 72 23.6979 72C10.7852 72 0.317383 82.4678 0.317383 95.3805C0.317383 108.293 10.7852 118.761 23.6979 118.761Z" fill="#2FACDF"/>
<path opacity="0.5" d="M270.698 118.761C283.611 118.761 294.078 108.293 294.078 95.3805C294.078 82.4678 283.611 72 270.698 72C257.785 72 247.317 82.4678 247.317 95.3805C247.317 108.293 257.785 118.761 270.698 118.761Z" fill="#2FACDF"/>
</svg>
