<svg width="332" height="334" viewBox="0 0 332 334" fill="none" xmlns="http://www.w3.org/2000/svg">
<path d="M165.999 333.677C153.139 333.677 142.618 323.156 142.618 310.296C142.618 297.437 153.139 286.916 165.999 286.916C231.464 286.916 285.239 233.141 285.239 167.675C285.239 146.633 279.394 126.76 270.042 108.055C264.197 96.365 267.704 82.3367 278.225 76.4916C289.915 70.6465 303.943 74.1535 309.789 84.6747C323.817 109.224 332 138.45 332 166.506C332 258.859 257.183 333.677 165.999 333.677Z" fill="#0470BE"/>
<path d="M166.001 333.689C74.8175 333.689 0 258.872 0 167.688C0 138.462 8.18317 109.237 22.2115 83.5183C29.2256 72.9971 43.2539 68.321 53.7751 75.3352C65.4653 82.3493 68.9724 96.3776 63.1273 106.899C52.6061 125.603 46.761 146.646 46.761 167.688C46.761 233.153 100.536 286.929 166.001 286.929C178.861 286.929 189.382 297.45 189.382 310.309C189.382 323.168 178.861 333.689 166.001 333.689Z" fill="#0470BE"/>
<path d="M21.937 83.3046C68.4914 4.03875 171.107 -23.1667 249.614 22.9424C274.777 37.721 295.762 59.6132 310.743 84.8131C316.22 96.2308 313.084 110.79 301.673 116.389C289.666 123.005 275.797 118.96 269.723 108.558C258.99 89.9539 243.857 74.2322 225.74 63.5916C169.376 30.4876 95.621 50.0415 62.1974 106.95C55.632 118.129 41.2017 121.955 30.1301 115.452C19.0585 108.949 15.3716 94.4831 21.937 83.3046Z" fill="#0470BE"/>
<path opacity="0.5" d="M165.999 333.681C178.911 333.681 189.379 323.213 189.379 310.3C189.379 297.388 178.911 286.92 165.999 286.92C153.086 286.92 142.618 297.388 142.618 310.3C142.618 323.213 153.086 333.681 165.999 333.681Z" fill="#2FACDF"/>
<path opacity="0.5" d="M42.3805 117.761C55.2932 117.761 65.761 107.293 65.761 94.3805C65.761 81.4678 55.2932 71 42.3805 71C29.4678 71 19 81.4678 19 94.3805C19 107.293 29.4678 117.761 42.3805 117.761Z" fill="#2FACDF"/>
<path opacity="0.5" d="M289.38 117.761C302.293 117.761 312.761 107.293 312.761 94.3805C312.761 81.4678 302.293 71 289.38 71C276.468 71 266 81.4678 266 94.3805C266 107.293 276.468 117.761 289.38 117.761Z" fill="#2FACDF"/>
</svg>
