<svg width="171" height="172" viewBox="0 0 171 172" fill="none" xmlns="http://www.w3.org/2000/svg">
<path d="M159.114 43.9319C136.054 3.33289 83.8225 -11.0591 43.2241 11.9998C30.2118 19.3904 19.2689 30.4246 11.3657 43.1744C8.45502 48.958 9.92063 56.3865 15.7043 59.2973C21.7835 62.7285 28.9163 60.7425 32.1226 55.4794C37.7898 46.0648 45.6805 38.1411 55.0493 32.8198C84.1969 16.2647 121.739 26.6089 138.294 55.757C141.546 61.4825 148.891 63.5063 154.616 60.2545C160.342 57.0026 162.365 49.6574 159.114 43.9319Z" fill="#0470BE"/>
<path d="M84.9997 170.996C78.4151 170.996 73.0277 165.609 73.0277 159.024C73.0277 152.44 78.4151 147.053 84.9997 147.053C118.521 147.053 146.057 119.518 146.057 85.9968C146.057 75.2223 143.064 65.0463 138.275 55.4689C135.282 49.483 137.078 42.3 142.465 39.307C148.451 36.3141 155.634 38.1099 158.627 43.4971C165.81 56.0675 170 71.0322 170 85.3982C170 132.687 131.69 170.996 84.9997 170.996Z" fill="#0470BE"/>
<path d="M85.0008 171.001C38.3102 171.001 0 132.692 0 86.002C0 71.0373 4.19018 56.0726 11.3733 42.9037C14.9649 37.5164 22.1481 35.1221 27.5355 38.7136C33.5214 42.3051 35.3172 49.4882 32.3242 54.8755C26.9369 64.4529 23.9439 75.2274 23.9439 86.002C23.9439 119.523 51.4793 147.058 85.0008 147.058C91.5853 147.058 96.9727 152.445 96.9727 159.03C96.9727 165.614 91.5853 171.001 85.0008 171.001Z" fill="#0470BE"/>
<path opacity="0.5" d="M148.972 61.9435C155.584 61.9435 160.944 56.5836 160.944 49.9717C160.944 43.3599 155.584 38 148.972 38C142.36 38 137 43.3599 137 49.9717C137 56.5836 142.36 61.9435 148.972 61.9435Z" fill="#2FACDF"/>
<path opacity="0.5" d="M84.9719 170.943C91.5839 170.943 96.9439 165.584 96.9439 158.972C96.9439 152.36 91.5839 147 84.9719 147C78.36 147 73 152.36 73 158.972C73 165.584 78.36 170.943 84.9719 170.943Z" fill="#2FACDF"/>
<path opacity="0.5" d="M21.9719 60.9435C28.5839 60.9435 33.9439 55.5836 33.9439 48.9717C33.9439 42.3599 28.5839 37 21.9719 37C15.36 37 10 42.3599 10 48.9717C10 55.5836 15.36 60.9435 21.9719 60.9435Z" fill="#2FACDF"/>
</svg>
