<svg width="32" height="32" viewBox="0 0 32 32" fill="none" xmlns="http://www.w3.org/2000/svg">
<path d="M1 13.2643L4.70409 18.7799L8.96374 13.679" stroke="black" stroke-linecap="round" stroke-linejoin="round"/>
<path d="M4.69014 18.7129C3.13912 12.2231 7.32833 5.89015 13.4008 4.45609C17.5953 3.46328 21.7965 4.9505 24.4652 7.96614" stroke="black" stroke-linecap="round" stroke-linejoin="round"/>
<path d="M30.9999 17.6538L27.2958 12.1356L23.0362 17.2365" stroke="black" stroke-linecap="round" stroke-linejoin="round"/>
<path d="M27.3102 12.2052C28.8612 18.695 24.672 25.0253 18.5995 26.462C14.405 27.4548 10.2039 25.9663 7.5351 22.952" stroke="black" stroke-linecap="round" stroke-linejoin="round"/>
<path fill-rule="evenodd" clip-rule="evenodd" d="M16 18.1159C14.5327 18.1159 13.3432 16.9264 13.3432 15.4605C13.3432 13.9905 14.5327 12.8023 16.0027 12.7997C17.4673 12.8023 18.6581 13.9905 18.6581 15.4578C18.6581 16.9264 17.4673 18.1159 16 18.1159V18.1159Z" stroke="black" stroke-linecap="round" stroke-linejoin="round"/>
</svg>
