<svg width="675" height="735" viewBox="0 0 675 735" fill="none" xmlns="http://www.w3.org/2000/svg">
<g clip-path="url(#clip0)">
<rect width="1260" height="4936" transform="translate(-293 -633)" fill="white"/>
<line x1="338.38" y1="142" x2="338.38" y2="240" stroke="#2FACDF" stroke-width="0.759622"/>
<line y1="-0.379811" x2="98" y2="-0.379811" transform="matrix(-4.37114e-08 -1 -1 4.37114e-08 338 612.817)" stroke="#2FACDF" stroke-width="0.759622"/>
<path d="M194.999 401L109.078 351.652C104.361 348.943 101.452 343.918 101.452 338.478L101.452 286.182" stroke="#2FACDF" stroke-width="0.759622"/>
<path d="M476.331 401L562.252 351.652C566.969 348.943 569.878 343.918 569.878 338.478L569.878 286.182" stroke="#2FACDF" stroke-width="0.759622"/>
<path d="M249.547 261.817L204.238 235.658C199.538 232.944 196.642 227.929 196.642 222.501L196.642 170.183" stroke="#2FACDF" stroke-width="0.759622"/>
<path d="M231.358 492L186.049 518.159C181.348 520.873 178.452 525.889 178.452 531.316L178.452 583.635" stroke="#2FACDF" stroke-width="0.759622"/>
<path d="M430.453 261.635L475.762 235.476C480.462 232.762 483.358 227.746 483.358 222.319L483.358 170" stroke="#2FACDF" stroke-width="0.759622"/>
<path d="M448.453 493.183L493.762 519.342C498.462 522.056 501.358 527.071 501.358 532.499L501.358 584.817" stroke="#2FACDF" stroke-width="0.759622"/>
<path d="M485.264 515.059L467.953 514.484L477.107 499.78L485.264 515.059Z" fill="#2FACDF"/>
<path d="M191.284 515.059L208.595 514.484L199.441 499.78L191.284 515.059Z" fill="#2FACDF"/>
<path d="M525.285 373.059L542.596 372.484L533.442 357.78L525.285 373.059Z" fill="#2FACDF"/>
<path d="M146.264 373.059L128.953 372.484L138.107 357.78L146.264 373.059Z" fill="#2FACDF"/>
<path d="M222.264 246.059L204.953 245.484L214.107 230.78L222.264 246.059Z" fill="#2FACDF"/>
<path d="M475.264 246.059L457.953 245.484L467.107 230.78L475.264 246.059Z" fill="#2FACDF"/>
<path d="M339 579L330.34 564L347.66 564L339 579Z" fill="#2FACDF"/>
<path d="M338 204L329.34 189L346.66 189L338 204Z" fill="#2FACDF"/>
<g opacity="0.5" filter="url(#filter0_f)">
<path d="M452.957 353.536C445.365 353.536 437.773 349.198 434.52 342.691C414.999 307.986 378.125 287.381 337.998 287.381C298.955 287.381 262.082 307.986 242.561 342.691C236.053 352.452 223.039 355.705 212.194 350.283C202.433 343.775 199.18 330.761 204.602 319.916C231.715 273.282 282.688 244 337.998 244C393.308 244 444.281 273.282 471.393 322.085C476.816 332.93 473.562 345.945 463.802 351.367C460.548 352.452 457.295 353.536 452.957 353.536Z" fill="#2FACDF"/>
<path d="M337.999 551.994C326.069 551.994 316.309 542.233 316.309 530.304C316.309 518.374 326.069 508.613 337.999 508.613C398.732 508.613 448.62 458.725 448.62 397.993C448.62 378.471 443.197 360.035 434.521 342.682C429.098 331.837 432.352 318.823 442.112 313.4C452.958 307.978 465.972 311.231 471.394 320.992C484.409 343.767 492 370.88 492 396.908C492 482.585 422.591 551.994 337.999 551.994Z" fill="#2FB984"/>
<path d="M338.001 552.006C253.409 552.006 184 482.597 184 398.004C184 370.891 191.592 343.778 204.606 319.919C211.113 310.158 224.127 305.82 233.888 312.327C244.733 318.835 247.986 331.849 242.564 341.609C232.803 358.962 227.381 378.483 227.381 398.004C227.381 458.737 277.268 508.625 338.001 508.625C349.931 508.625 359.692 518.386 359.692 530.315C359.692 542.245 349.931 552.006 338.001 552.006Z" fill="#0470BE"/>
<path opacity="0.3" d="M245.471 330.741C245.471 342.671 235.711 352.431 223.781 352.431C211.851 352.431 202.091 342.671 202.091 330.741C202.091 318.811 211.851 309.051 223.781 309.051C235.786 309.051 245.471 318.737 245.471 330.741Z" fill="white"/>
<path opacity="0.3" d="M452.954 353.529C464.933 353.529 474.644 343.818 474.644 331.839C474.644 319.86 464.933 310.148 452.954 310.148C440.975 310.148 431.264 319.86 431.264 331.839C431.264 343.818 440.975 353.529 452.954 353.529Z" fill="white"/>
<path opacity="0.3" d="M337.999 551.998C349.978 551.998 359.689 542.287 359.689 530.308C359.689 518.328 349.978 508.617 337.999 508.617C326.02 508.617 316.309 518.328 316.309 530.308C316.309 542.287 326.02 551.998 337.999 551.998Z" fill="white"/>
</g>
<path d="M461.915 336.071C453.732 336.071 445.549 331.395 442.041 324.381C420.999 286.972 381.252 264.761 337.998 264.761C295.913 264.761 256.167 286.972 235.124 324.381C228.11 334.902 214.082 338.409 202.392 332.564C191.87 325.55 188.363 311.522 194.208 299.832C223.434 249.564 278.378 218 337.998 218C397.619 218 452.563 249.564 481.788 302.17C487.633 313.86 484.126 327.888 473.605 333.733C470.098 334.902 466.591 336.071 461.915 336.071Z" fill="#2FACDF"/>
<path d="M337.999 549.993C325.139 549.993 314.618 539.472 314.618 526.613C314.618 513.753 325.139 503.232 337.999 503.232C403.464 503.232 457.239 449.457 457.239 383.992C457.239 362.949 451.394 343.076 442.042 324.372C436.197 312.681 439.704 298.653 450.225 292.808C461.915 286.963 475.943 290.47 481.789 300.991C495.817 325.541 504 354.766 504 382.823C504 475.176 429.183 549.993 337.999 549.993Z" fill="#2FB984"/>
<path d="M338.001 550.006C246.818 550.006 172 475.188 172 384.004C172 354.779 180.183 325.553 194.211 299.835C201.226 289.314 215.254 284.637 225.775 291.652C237.465 298.666 240.972 312.694 235.127 323.215C224.606 341.92 218.761 362.962 218.761 384.004C218.761 449.47 272.536 503.245 338.001 503.245C350.861 503.245 361.382 513.766 361.382 526.625C361.382 539.485 350.861 550.006 338.001 550.006Z" fill="#0470BE"/>
<path opacity="0.3" d="M238.261 311.5C238.261 324.359 227.74 334.88 214.88 334.88C202.021 334.88 191.5 324.359 191.5 311.5C191.5 298.64 202.021 288.119 214.88 288.119C227.82 288.119 238.261 298.56 238.261 311.5Z" fill="#023F79"/>
<path opacity="0.3" d="M461.912 336.065C474.824 336.065 485.292 325.597 485.292 312.684C485.292 299.772 474.824 289.304 461.912 289.304C448.999 289.304 438.531 299.772 438.531 312.684C438.531 325.597 448.999 336.065 461.912 336.065Z" fill="#023F79"/>
<path opacity="0.3" d="M337.999 549.997C350.911 549.997 361.379 539.529 361.379 526.617C361.379 513.704 350.911 503.236 337.999 503.236C325.086 503.236 314.618 513.704 314.618 526.617C314.618 539.529 325.086 549.997 337.999 549.997Z" fill="#023F79"/>
<g filter="url(#filter1_d)">
<path d="M152 261C152 290.7 127.925 315 98.5 315C69.075 315 45 290.7 45 261C45 231.3 69.075 207 98.5 207C128.109 207 152 231.114 152 261Z" fill="white"/>
</g>
<g filter="url(#filter2_d)">
<path d="M622 261C622 290.7 597.925 315 568.5 315C539.075 315 515 290.7 515 261C515 231.3 539.075 207 568.5 207C598.109 207 622 231.114 622 261Z" fill="white"/>
</g>
<g filter="url(#filter3_d)">
<path d="M249 148C249 177.7 224.925 202 195.5 202C166.075 202 142 177.7 142 148C142 118.3 166.075 94 195.5 94C225.109 94 249 118.114 249 148Z" fill="white"/>
</g>
<g filter="url(#filter4_d)">
<path d="M231 595C231 624.7 206.925 649 177.5 649C148.075 649 124 624.7 124 595C124 565.3 148.075 541 177.5 541C207.109 541 231 565.114 231 595Z" fill="white"/>
</g>
<g filter="url(#filter5_d)">
<path d="M392 108C392 137.7 367.925 162 338.5 162C309.075 162 285 137.7 285 108C285 78.3 309.075 54 338.5 54C368.109 54 392 78.1141 392 108Z" fill="white"/>
</g>
<g filter="url(#filter6_d)">
<path d="M392 651C392 680.7 367.925 705 338.5 705C309.075 705 285 680.7 285 651C285 621.3 309.075 597 338.5 597C368.109 597 392 621.114 392 651Z" fill="white"/>
</g>
<g filter="url(#filter7_d)">
<path d="M534 148C534 177.7 509.925 202 480.5 202C451.075 202 427 177.7 427 148C427 118.3 451.075 94 480.5 94C510.109 94 534 118.114 534 148Z" fill="white"/>
</g>
<g filter="url(#filter8_d)">
<path d="M552 596C552 625.7 527.925 650 498.5 650C469.075 650 445 625.7 445 596C445 566.3 469.075 542 498.5 542C528.109 542 552 566.114 552 596Z" fill="white"/>
</g>
</g>
<defs>
<filter id="filter0_f" x="144" y="204" width="388" height="388.006" filterUnits="userSpaceOnUse" color-interpolation-filters="sRGB">
<feFlood flood-opacity="0" result="BackgroundImageFix"/>
<feBlend mode="normal" in="SourceGraphic" in2="BackgroundImageFix" result="shape"/>
<feGaussianBlur stdDeviation="20" result="effect1_foregroundBlur"/>
</filter>
<filter id="filter1_d" x="25" y="191" width="147" height="148" filterUnits="userSpaceOnUse" color-interpolation-filters="sRGB">
<feFlood flood-opacity="0" result="BackgroundImageFix"/>
<feColorMatrix in="SourceAlpha" type="matrix" values="0 0 0 0 0 0 0 0 0 0 0 0 0 0 0 0 0 0 127 0"/>
<feOffset dy="4"/>
<feGaussianBlur stdDeviation="10"/>
<feColorMatrix type="matrix" values="0 0 0 0 0 0 0 0 0 0 0 0 0 0 0 0 0 0 0.15 0"/>
<feBlend mode="normal" in2="BackgroundImageFix" result="effect1_dropShadow"/>
<feBlend mode="normal" in="SourceGraphic" in2="effect1_dropShadow" result="shape"/>
</filter>
<filter id="filter2_d" x="495" y="191" width="147" height="148" filterUnits="userSpaceOnUse" color-interpolation-filters="sRGB">
<feFlood flood-opacity="0" result="BackgroundImageFix"/>
<feColorMatrix in="SourceAlpha" type="matrix" values="0 0 0 0 0 0 0 0 0 0 0 0 0 0 0 0 0 0 127 0"/>
<feOffset dy="4"/>
<feGaussianBlur stdDeviation="10"/>
<feColorMatrix type="matrix" values="0 0 0 0 0 0 0 0 0 0 0 0 0 0 0 0 0 0 0.15 0"/>
<feBlend mode="normal" in2="BackgroundImageFix" result="effect1_dropShadow"/>
<feBlend mode="normal" in="SourceGraphic" in2="effect1_dropShadow" result="shape"/>
</filter>
<filter id="filter3_d" x="122" y="78" width="147" height="148" filterUnits="userSpaceOnUse" color-interpolation-filters="sRGB">
<feFlood flood-opacity="0" result="BackgroundImageFix"/>
<feColorMatrix in="SourceAlpha" type="matrix" values="0 0 0 0 0 0 0 0 0 0 0 0 0 0 0 0 0 0 127 0"/>
<feOffset dy="4"/>
<feGaussianBlur stdDeviation="10"/>
<feColorMatrix type="matrix" values="0 0 0 0 0 0 0 0 0 0 0 0 0 0 0 0 0 0 0.15 0"/>
<feBlend mode="normal" in2="BackgroundImageFix" result="effect1_dropShadow"/>
<feBlend mode="normal" in="SourceGraphic" in2="effect1_dropShadow" result="shape"/>
</filter>
<filter id="filter4_d" x="104" y="525" width="147" height="148" filterUnits="userSpaceOnUse" color-interpolation-filters="sRGB">
<feFlood flood-opacity="0" result="BackgroundImageFix"/>
<feColorMatrix in="SourceAlpha" type="matrix" values="0 0 0 0 0 0 0 0 0 0 0 0 0 0 0 0 0 0 127 0"/>
<feOffset dy="4"/>
<feGaussianBlur stdDeviation="10"/>
<feColorMatrix type="matrix" values="0 0 0 0 0 0 0 0 0 0 0 0 0 0 0 0 0 0 0.15 0"/>
<feBlend mode="normal" in2="BackgroundImageFix" result="effect1_dropShadow"/>
<feBlend mode="normal" in="SourceGraphic" in2="effect1_dropShadow" result="shape"/>
</filter>
<filter id="filter5_d" x="265" y="38" width="147" height="148" filterUnits="userSpaceOnUse" color-interpolation-filters="sRGB">
<feFlood flood-opacity="0" result="BackgroundImageFix"/>
<feColorMatrix in="SourceAlpha" type="matrix" values="0 0 0 0 0 0 0 0 0 0 0 0 0 0 0 0 0 0 127 0"/>
<feOffset dy="4"/>
<feGaussianBlur stdDeviation="10"/>
<feColorMatrix type="matrix" values="0 0 0 0 0 0 0 0 0 0 0 0 0 0 0 0 0 0 0.15 0"/>
<feBlend mode="normal" in2="BackgroundImageFix" result="effect1_dropShadow"/>
<feBlend mode="normal" in="SourceGraphic" in2="effect1_dropShadow" result="shape"/>
</filter>
<filter id="filter6_d" x="265" y="581" width="147" height="148" filterUnits="userSpaceOnUse" color-interpolation-filters="sRGB">
<feFlood flood-opacity="0" result="BackgroundImageFix"/>
<feColorMatrix in="SourceAlpha" type="matrix" values="0 0 0 0 0 0 0 0 0 0 0 0 0 0 0 0 0 0 127 0"/>
<feOffset dy="4"/>
<feGaussianBlur stdDeviation="10"/>
<feColorMatrix type="matrix" values="0 0 0 0 0 0 0 0 0 0 0 0 0 0 0 0 0 0 0.15 0"/>
<feBlend mode="normal" in2="BackgroundImageFix" result="effect1_dropShadow"/>
<feBlend mode="normal" in="SourceGraphic" in2="effect1_dropShadow" result="shape"/>
</filter>
<filter id="filter7_d" x="407" y="78" width="147" height="148" filterUnits="userSpaceOnUse" color-interpolation-filters="sRGB">
<feFlood flood-opacity="0" result="BackgroundImageFix"/>
<feColorMatrix in="SourceAlpha" type="matrix" values="0 0 0 0 0 0 0 0 0 0 0 0 0 0 0 0 0 0 127 0"/>
<feOffset dy="4"/>
<feGaussianBlur stdDeviation="10"/>
<feColorMatrix type="matrix" values="0 0 0 0 0 0 0 0 0 0 0 0 0 0 0 0 0 0 0.15 0"/>
<feBlend mode="normal" in2="BackgroundImageFix" result="effect1_dropShadow"/>
<feBlend mode="normal" in="SourceGraphic" in2="effect1_dropShadow" result="shape"/>
</filter>
<filter id="filter8_d" x="425" y="526" width="147" height="148" filterUnits="userSpaceOnUse" color-interpolation-filters="sRGB">
<feFlood flood-opacity="0" result="BackgroundImageFix"/>
<feColorMatrix in="SourceAlpha" type="matrix" values="0 0 0 0 0 0 0 0 0 0 0 0 0 0 0 0 0 0 127 0"/>
<feOffset dy="4"/>
<feGaussianBlur stdDeviation="10"/>
<feColorMatrix type="matrix" values="0 0 0 0 0 0 0 0 0 0 0 0 0 0 0 0 0 0 0.15 0"/>
<feBlend mode="normal" in2="BackgroundImageFix" result="effect1_dropShadow"/>
<feBlend mode="normal" in="SourceGraphic" in2="effect1_dropShadow" result="shape"/>
</filter>
<clipPath id="clip0">
<rect width="1260" height="4936" fill="white" transform="translate(-293 -633)"/>
</clipPath>
</defs>
</svg>
