<svg width="66" height="66" viewBox="0 0 66 66" fill="none" xmlns="http://www.w3.org/2000/svg">
<path d="M32.689 59.334H12.6667C10.0883 59.334 8 57.2433 8 54.6673V10.334" stroke="#2FACDF" stroke-width="2.33333" stroke-linecap="round" stroke-linejoin="round"/>
<path d="M52.3333 5.66699H12.6667C10.0907 5.66699 8 7.75533 8 10.3337C8 12.9097 10.0907 15.0003 12.6667 15.0003H52.3333V32.561" stroke="#2FACDF" stroke-width="2.33333" stroke-linecap="round" stroke-linejoin="round"/>
<path d="M12.667 10.334H50.0003" stroke="#2FACDF" stroke-width="2.33333" stroke-linecap="round" stroke-linejoin="round"/>
<path fill-rule="evenodd" clip-rule="evenodd" d="M51.4237 44.7648C51.4237 49.6695 47.4477 53.6408 42.5453 53.6408C37.643 53.6408 33.667 49.6695 33.667 44.7648C33.667 39.8555 37.643 35.8818 42.5453 35.8818C47.4477 35.8818 51.4237 39.8555 51.4237 44.7648V44.7648Z" stroke="#2FACDF" stroke-width="2.33333" stroke-linejoin="round"/>
<path d="M48.833 51.0488L56.9997 59.2155" stroke="#2FACDF" stroke-width="2.33333" stroke-linecap="round" stroke-linejoin="round"/>
</svg>
