<svg width="360" height="910" viewBox="0 0 360 910" fill="none" xmlns="http://www.w3.org/2000/svg">
<path d="M180 681L180 749" stroke="#2FACDF" stroke-width="0.759622"/>
<path d="M180 733L173.938 722.5L186.062 722.5L180 733Z" fill="#2FACDF"/>
<g filter="url(#filter0_d)">
<path d="M213 781C213 798.6 198.6 813 181 813C163.4 813 149 798.6 149 781C149 763.4 163.4 749 181 749C198.71 749 213 763.29 213 781Z" fill="white"/>
</g>
<path d="M81.5076 745L126.817 718.841C131.517 716.127 134.413 711.112 134.413 705.684L134.413 670.5" stroke="#2FACDF" stroke-width="0.759622"/>
<path d="M111.5 728.062L117.562 717.562L123.624 728.062L111.5 728.062Z" fill="#2FACDF"/>
<g filter="url(#filter1_d)">
<path d="M109 754.5C109 772.1 94.6 786.5 77 786.5C59.4 786.5 45 772.1 45 754.5C45 736.9 59.4 722.5 77 722.5C94.7102 722.5 109 736.79 109 754.5Z" fill="white"/>
</g>
<path d="M251.624 728.062L239.5 728.062L245.562 717.562L251.624 728.062Z" fill="#2FACDF"/>
<path d="M281.159 745.5L235.85 719.341C231.15 716.627 228.254 711.612 228.254 706.184L228.254 662.5" stroke="#2FACDF" stroke-width="0.759622"/>
<g filter="url(#filter2_d)">
<path d="M316 754.5C316 772.1 301.6 786.5 284 786.5C266.4 786.5 252 772.1 252 754.5C252 736.9 266.4 722.5 284 722.5C301.71 722.5 316 736.79 316 754.5Z" fill="white"/>
</g>
<path d="M280.029 531.312C273.423 531.312 266.817 527.537 263.986 521.875C247 491.677 214.915 473.747 179.998 473.747C146.026 473.747 113.941 491.677 96.9543 521.875C91.2922 530.368 79.968 533.199 70.5311 528.481C62.038 522.819 59.2069 511.495 63.9254 502.058C87.5175 461.479 131.871 436 179.998 436C228.126 436 272.479 461.479 296.072 503.945C300.79 513.382 297.959 524.706 289.466 529.425C286.635 530.368 283.804 531.312 280.029 531.312Z" fill="#2FACDF"/>
<path d="M179.999 703.999C169.618 703.999 161.125 695.505 161.125 685.125C161.125 674.744 169.618 666.251 179.999 666.251C232.845 666.251 276.254 622.842 276.254 569.996C276.254 553.009 271.536 536.967 263.987 521.868C259.268 512.431 262.099 501.107 270.592 496.388C280.029 491.67 291.353 494.501 296.072 502.994C307.396 522.811 314.002 546.403 314.002 569.052C314.002 643.603 253.606 703.999 179.999 703.999Z" fill="#2FB984"/>
<path d="M180.003 704.009C106.396 704.009 46 643.613 46 570.006C46 546.414 52.6058 522.822 63.93 502.061C69.5921 493.568 80.9163 489.793 89.4094 495.455C98.8463 501.117 101.677 512.441 96.9589 520.934C88.4658 536.033 83.7473 553.02 83.7473 570.006C83.7473 622.852 127.157 666.262 180.003 666.262C190.384 666.262 198.877 674.755 198.877 685.135C198.877 695.516 190.384 704.009 180.003 704.009Z" fill="#0470BE"/>
<path opacity="0.3" d="M99.4895 511.477C99.4895 521.858 90.9964 530.351 80.6159 530.351C70.2353 530.351 61.7422 521.858 61.7422 511.477C61.7422 501.097 70.2353 492.604 80.6159 492.604C91.0614 492.604 99.4895 501.032 99.4895 511.477Z" fill="#023F79"/>
<path opacity="0.3" d="M280.026 531.306C290.45 531.306 298.9 522.856 298.9 512.432C298.9 502.009 290.45 493.559 280.026 493.559C269.602 493.559 261.152 502.009 261.152 512.432C261.152 522.856 269.602 531.306 280.026 531.306Z" fill="#023F79"/>
<path opacity="0.3" d="M179.999 704.001C190.422 704.001 198.872 695.551 198.872 685.128C198.872 674.704 190.422 666.254 179.999 666.254C169.575 666.254 161.125 674.704 161.125 685.128C161.125 695.551 169.575 704.001 179.999 704.001Z" fill="#023F79"/>
<path d="M283.412 384L238.103 410.159C233.402 412.873 230.507 417.889 230.507 423.316L230.508 469" stroke="#2FACDF" stroke-width="0.759622"/>
<path d="M236.501 411.062L248.625 411.062L242.563 400.562L236.501 411.062Z" fill="#2FACDF"/>
<g filter="url(#filter3_d)">
<path d="M316 383C316 400.6 301.6 415 284 415C266.4 415 252 400.6 252 383C252 365.4 266.4 351 284 351C301.71 351 316 365.29 316 383Z" fill="white"/>
</g>
<path d="M104.1 252L149.409 278.16C154.109 280.873 157.005 285.889 157.005 291.317L157.004 459.5" stroke="#2FACDF" stroke-width="0.759622"/>
<path d="M157 363.462L150.938 352.962L163.062 352.962L157 363.462Z" fill="#2FACDF"/>
<g filter="url(#filter4_d)">
<path d="M109 238C109 255.6 94.6 270 77 270C59.4 270 45 255.6 45 238C45 220.4 59.4 206 77 206C94.7102 206 109 220.29 109 238Z" fill="white"/>
</g>
<path d="M180 168L180 461.5" stroke="#2FACDF" stroke-width="0.759622"/>
<path d="M180 253L173.938 242.5L186.062 242.5L180 253Z" fill="#2FACDF"/>
<g filter="url(#filter5_d)">
<path d="M212 136C212 153.6 197.6 168 180 168C162.4 168 148 153.6 148 136C148 118.4 162.4 104 180 104C197.71 104 212 118.29 212 136Z" fill="white"/>
</g>
<path d="M258.006 254L212.697 280.16C207.996 282.874 205.101 287.889 205.101 293.317L205.101 458.5" stroke="#2FACDF" stroke-width="0.759622"/>
<path d="M205 363.462L198.938 352.962L211.062 352.962L205 363.462Z" fill="#2FACDF"/>
<g filter="url(#filter6_d)">
<path d="M316 238C316 255.6 301.6 270 284 270C266.4 270 252 255.6 252 238C252 220.4 266.4 206 284 206C301.71 206 316 220.29 316 238Z" fill="white"/>
</g>
<path d="M80.0991 386L125.408 412.159C130.109 414.873 133.004 419.889 133.004 425.317L133.003 468.5" stroke="#2FACDF" stroke-width="0.759622"/>
<path d="M123.624 411.062L111.5 411.062L117.562 400.562L123.624 411.062Z" fill="#2FACDF"/>
<g filter="url(#filter7_d)">
<path d="M109 383C109 400.6 94.6 415 77 415C59.4 415 45 400.6 45 383C45 365.4 59.4 351 77 351C94.7102 351 109 365.29 109 383Z" fill="white"/>
</g>
<g opacity="0.5" filter="url(#filter8_f)">
<path d="M280.025 531.309C273.419 531.309 266.814 527.534 263.983 521.872C246.997 491.676 214.913 473.746 179.998 473.746C146.026 473.746 113.942 491.676 96.9561 521.872C91.2942 530.365 79.9703 533.196 70.5338 528.478C62.0409 522.816 59.21 511.492 63.9282 502.056C87.5195 461.479 131.871 436 179.998 436C228.124 436 272.475 461.479 296.067 503.943C300.785 513.38 297.954 524.703 289.461 529.422C286.63 530.365 283.799 531.309 280.025 531.309Z" fill="#2FACDF"/>
<path d="M179.998 703.99C169.618 703.99 161.125 695.497 161.125 685.117C161.125 674.737 169.618 666.244 179.998 666.244C232.843 666.244 276.251 622.836 276.251 569.991C276.251 553.005 271.532 536.963 263.983 521.865C259.265 512.428 262.096 501.104 270.589 496.386C280.025 491.668 291.349 494.499 296.067 502.992C307.391 522.809 313.997 546.4 313.997 569.047C313.997 643.596 253.603 703.99 179.998 703.99Z" fill="#2FB984"/>
<path d="M179.999 704C106.394 704 46 643.606 46 570.002C46 546.41 52.6056 522.819 63.9294 502.059C69.5913 493.566 80.9152 489.791 89.408 495.453C98.8446 501.115 101.676 512.439 96.9573 520.932C88.4644 536.03 83.7461 553.016 83.7461 570.002C83.7461 622.846 127.154 666.254 179.999 666.254C190.379 666.254 198.872 674.747 198.872 685.127C198.872 695.507 190.379 704 179.999 704Z" fill="#0470BE"/>
<path opacity="0.3" d="M99.4844 511.475C99.4844 521.855 90.9915 530.348 80.6113 530.348C70.2312 530.348 61.7383 521.855 61.7383 511.475C61.7383 501.094 70.2312 492.602 80.6113 492.602C91.0565 492.602 99.4844 501.029 99.4844 511.475Z" fill="white"/>
<path opacity="0.3" d="M280.022 531.303C290.446 531.303 298.896 522.853 298.896 512.43C298.896 502.006 290.446 493.557 280.022 493.557C269.599 493.557 261.149 502.006 261.149 512.43C261.149 522.853 269.599 531.303 280.022 531.303Z" fill="white"/>
<path opacity="0.3" d="M179.998 703.993C190.421 703.993 198.871 695.543 198.871 685.12C198.871 674.697 190.421 666.247 179.998 666.247C169.575 666.247 161.125 674.697 161.125 685.12C161.125 695.543 169.575 703.993 179.998 703.993Z" fill="white"/>
</g>
<defs>
<filter id="filter0_d" x="137.037" y="739.43" width="87.9252" height="87.9252" filterUnits="userSpaceOnUse" color-interpolation-filters="sRGB">
<feFlood flood-opacity="0" result="BackgroundImageFix"/>
<feColorMatrix in="SourceAlpha" type="matrix" values="0 0 0 0 0 0 0 0 0 0 0 0 0 0 0 0 0 0 127 0"/>
<feOffset dy="2.39252"/>
<feGaussianBlur stdDeviation="5.98131"/>
<feColorMatrix type="matrix" values="0 0 0 0 0 0 0 0 0 0 0 0 0 0 0 0 0 0 0.15 0"/>
<feBlend mode="normal" in2="BackgroundImageFix" result="effect1_dropShadow"/>
<feBlend mode="normal" in="SourceGraphic" in2="effect1_dropShadow" result="shape"/>
</filter>
<filter id="filter1_d" x="33.0374" y="712.93" width="87.9252" height="87.9252" filterUnits="userSpaceOnUse" color-interpolation-filters="sRGB">
<feFlood flood-opacity="0" result="BackgroundImageFix"/>
<feColorMatrix in="SourceAlpha" type="matrix" values="0 0 0 0 0 0 0 0 0 0 0 0 0 0 0 0 0 0 127 0"/>
<feOffset dy="2.39252"/>
<feGaussianBlur stdDeviation="5.98131"/>
<feColorMatrix type="matrix" values="0 0 0 0 0 0 0 0 0 0 0 0 0 0 0 0 0 0 0.15 0"/>
<feBlend mode="normal" in2="BackgroundImageFix" result="effect1_dropShadow"/>
<feBlend mode="normal" in="SourceGraphic" in2="effect1_dropShadow" result="shape"/>
</filter>
<filter id="filter2_d" x="240.037" y="712.93" width="87.9252" height="87.9252" filterUnits="userSpaceOnUse" color-interpolation-filters="sRGB">
<feFlood flood-opacity="0" result="BackgroundImageFix"/>
<feColorMatrix in="SourceAlpha" type="matrix" values="0 0 0 0 0 0 0 0 0 0 0 0 0 0 0 0 0 0 127 0"/>
<feOffset dy="2.39252"/>
<feGaussianBlur stdDeviation="5.98131"/>
<feColorMatrix type="matrix" values="0 0 0 0 0 0 0 0 0 0 0 0 0 0 0 0 0 0 0.15 0"/>
<feBlend mode="normal" in2="BackgroundImageFix" result="effect1_dropShadow"/>
<feBlend mode="normal" in="SourceGraphic" in2="effect1_dropShadow" result="shape"/>
</filter>
<filter id="filter3_d" x="240.037" y="341.43" width="87.9252" height="87.9252" filterUnits="userSpaceOnUse" color-interpolation-filters="sRGB">
<feFlood flood-opacity="0" result="BackgroundImageFix"/>
<feColorMatrix in="SourceAlpha" type="matrix" values="0 0 0 0 0 0 0 0 0 0 0 0 0 0 0 0 0 0 127 0"/>
<feOffset dy="2.39252"/>
<feGaussianBlur stdDeviation="5.98131"/>
<feColorMatrix type="matrix" values="0 0 0 0 0 0 0 0 0 0 0 0 0 0 0 0 0 0 0.15 0"/>
<feBlend mode="normal" in2="BackgroundImageFix" result="effect1_dropShadow"/>
<feBlend mode="normal" in="SourceGraphic" in2="effect1_dropShadow" result="shape"/>
</filter>
<filter id="filter4_d" x="33.0374" y="196.43" width="87.9252" height="87.9252" filterUnits="userSpaceOnUse" color-interpolation-filters="sRGB">
<feFlood flood-opacity="0" result="BackgroundImageFix"/>
<feColorMatrix in="SourceAlpha" type="matrix" values="0 0 0 0 0 0 0 0 0 0 0 0 0 0 0 0 0 0 127 0"/>
<feOffset dy="2.39252"/>
<feGaussianBlur stdDeviation="5.98131"/>
<feColorMatrix type="matrix" values="0 0 0 0 0 0 0 0 0 0 0 0 0 0 0 0 0 0 0.15 0"/>
<feBlend mode="normal" in2="BackgroundImageFix" result="effect1_dropShadow"/>
<feBlend mode="normal" in="SourceGraphic" in2="effect1_dropShadow" result="shape"/>
</filter>
<filter id="filter5_d" x="136.037" y="94.4299" width="87.9252" height="87.9252" filterUnits="userSpaceOnUse" color-interpolation-filters="sRGB">
<feFlood flood-opacity="0" result="BackgroundImageFix"/>
<feColorMatrix in="SourceAlpha" type="matrix" values="0 0 0 0 0 0 0 0 0 0 0 0 0 0 0 0 0 0 127 0"/>
<feOffset dy="2.39252"/>
<feGaussianBlur stdDeviation="5.98131"/>
<feColorMatrix type="matrix" values="0 0 0 0 0 0 0 0 0 0 0 0 0 0 0 0 0 0 0.15 0"/>
<feBlend mode="normal" in2="BackgroundImageFix" result="effect1_dropShadow"/>
<feBlend mode="normal" in="SourceGraphic" in2="effect1_dropShadow" result="shape"/>
</filter>
<filter id="filter6_d" x="240.037" y="196.43" width="87.9252" height="87.9252" filterUnits="userSpaceOnUse" color-interpolation-filters="sRGB">
<feFlood flood-opacity="0" result="BackgroundImageFix"/>
<feColorMatrix in="SourceAlpha" type="matrix" values="0 0 0 0 0 0 0 0 0 0 0 0 0 0 0 0 0 0 127 0"/>
<feOffset dy="2.39252"/>
<feGaussianBlur stdDeviation="5.98131"/>
<feColorMatrix type="matrix" values="0 0 0 0 0 0 0 0 0 0 0 0 0 0 0 0 0 0 0.15 0"/>
<feBlend mode="normal" in2="BackgroundImageFix" result="effect1_dropShadow"/>
<feBlend mode="normal" in="SourceGraphic" in2="effect1_dropShadow" result="shape"/>
</filter>
<filter id="filter7_d" x="33.0374" y="341.43" width="87.9252" height="87.9252" filterUnits="userSpaceOnUse" color-interpolation-filters="sRGB">
<feFlood flood-opacity="0" result="BackgroundImageFix"/>
<feColorMatrix in="SourceAlpha" type="matrix" values="0 0 0 0 0 0 0 0 0 0 0 0 0 0 0 0 0 0 127 0"/>
<feOffset dy="2.39252"/>
<feGaussianBlur stdDeviation="5.98131"/>
<feColorMatrix type="matrix" values="0 0 0 0 0 0 0 0 0 0 0 0 0 0 0 0 0 0 0.15 0"/>
<feBlend mode="normal" in2="BackgroundImageFix" result="effect1_dropShadow"/>
<feBlend mode="normal" in="SourceGraphic" in2="effect1_dropShadow" result="shape"/>
</filter>
<filter id="filter8_f" x="6" y="396" width="347.997" height="348" filterUnits="userSpaceOnUse" color-interpolation-filters="sRGB">
<feFlood flood-opacity="0" result="BackgroundImageFix"/>
<feBlend mode="normal" in="SourceGraphic" in2="BackgroundImageFix" result="shape"/>
<feGaussianBlur stdDeviation="20" result="effect1_foregroundBlur"/>
</filter>
</defs>
</svg>
