<svg width="46" height="56" viewBox="0 0 46 56" fill="none" xmlns="http://www.w3.org/2000/svg">
<path fill-rule="evenodd" clip-rule="evenodd" d="M44.8718 9.89744C44.8718 14.2613 35.273 17.7949 23.4359 17.7949C11.5965 17.7949 2 14.2613 2 9.89744C2 5.53354 11.5965 2 23.4359 2C35.273 2 44.8718 5.53354 44.8718 9.89744V9.89744Z" stroke="#2FACDF" stroke-width="2.25641" stroke-linecap="round" stroke-linejoin="round"/>
<path d="M2 9.89746V15.5385C2 18.0205 3.43733 21.4886 5.19282 23.2419L20.0513 38.1026" stroke="#2FACDF" stroke-width="2.25641" stroke-linecap="round" stroke-linejoin="round"/>
<path d="M44.8716 9.89746V15.5385C44.8716 18.0205 43.4365 21.4886 41.681 23.2419L26.8203 38.1026" stroke="#2FACDF" stroke-width="2.25641" stroke-linecap="round" stroke-linejoin="round"/>
<path d="M26.821 38.1025V51.641C26.821 52.882 25.8079 53.8974 24.5646 53.8974H22.3082C21.0671 53.8974 20.0518 52.882 20.0518 51.641V38.1025" stroke="#2FACDF" stroke-width="2.25641" stroke-linecap="round" stroke-linejoin="round"/>
</svg>
