<svg width="56" height="62" viewBox="0 0 56 62" fill="none" xmlns="http://www.w3.org/2000/svg">
<path fill-rule="evenodd" clip-rule="evenodd" d="M54.1895 13.027C54.1895 19.1193 42.4596 24.0539 28.0005 24.0539C13.5387 24.0539 1.81152 19.1193 1.81152 13.027C1.81152 6.94007 13.5387 2 28.0005 2C42.4596 2 54.1895 6.94007 54.1895 13.027V13.027Z" stroke="#2FACDF" stroke-width="2.75674" stroke-linecap="round" stroke-linejoin="round"/>
<path d="M54.1876 24.0537C54.1876 30.1461 42.4604 35.0807 27.9986 35.0807C13.5367 35.0807 1.80957 30.1461 1.80957 24.0537" stroke="#2FACDF" stroke-width="2.75674" stroke-linecap="round" stroke-linejoin="round"/>
<path d="M54.1876 36.459C54.1876 42.5514 42.4604 47.4859 27.9986 47.4859C13.5367 47.4859 1.80957 42.5514 1.80957 36.459" stroke="#2FACDF" stroke-width="2.75674" stroke-linecap="round" stroke-linejoin="round"/>
<path d="M1.80957 13.0264V48.864C1.80957 54.9563 13.5367 59.8909 27.9986 59.8909C42.4604 59.8909 54.1876 54.9563 54.1876 48.864V13.0264" stroke="#2FACDF" stroke-width="2.75674" stroke-linecap="round" stroke-linejoin="round"/>
</svg>
