<svg width="58" height="46" viewBox="0 0 58 46" fill="none" xmlns="http://www.w3.org/2000/svg">
<path fill-rule="evenodd" clip-rule="evenodd" d="M56 39.5652C56 42.1572 53.901 44.2609 51.3043 44.2609H6.69565C4.10365 44.2609 2 42.1572 2 39.5652V6.69565C2 4.10365 4.10365 2 6.69565 2H51.3043C53.901 2 56 4.10365 56 6.69565V39.5652V39.5652Z" stroke="#2FACDF" stroke-width="2.34783" stroke-linecap="round" stroke-linejoin="round"/>
<path d="M2 13.7393H56" stroke="#2FACDF" stroke-width="2.34783" stroke-linecap="round" stroke-linejoin="round"/>
<path fill-rule="evenodd" clip-rule="evenodd" d="M11.3918 7.86923C11.3918 8.51723 10.8659 9.04314 10.2179 9.04314C9.56986 9.04314 9.04395 8.51723 9.04395 7.86923C9.04395 7.22123 9.56986 6.69531 10.2179 6.69531C10.8659 6.69531 11.3918 7.22123 11.3918 7.86923V7.86923Z" stroke="#2FACDF" stroke-width="2.34783" stroke-linecap="round" stroke-linejoin="round"/>
<path fill-rule="evenodd" clip-rule="evenodd" d="M18.4347 7.86923C18.4347 8.51723 17.9088 9.04314 17.2608 9.04314C16.6128 9.04314 16.0869 8.51723 16.0869 7.86923C16.0869 7.22123 16.6128 6.69531 17.2608 6.69531C17.9088 6.69531 18.4347 7.22123 18.4347 7.86923V7.86923Z" stroke="#2FACDF" stroke-width="2.34783" stroke-linecap="round" stroke-linejoin="round"/>
<path fill-rule="evenodd" clip-rule="evenodd" d="M25.4777 7.86923C25.4777 8.51723 24.9518 9.04314 24.3038 9.04314C23.6558 9.04314 23.1299 8.51723 23.1299 7.86923C23.1299 7.22123 23.6558 6.69531 24.3038 6.69531C24.9518 6.69531 25.4777 7.22123 25.4777 7.86923V7.86923Z" stroke="#2FACDF" stroke-width="2.34783" stroke-linecap="round" stroke-linejoin="round"/>
<path d="M2 30.1735H13.7391L18.4348 23.1301L23.1304 34.8692L32.5217 20.7822L39.5652 37.217L44.2609 30.1735H56" stroke="#2FACDF" stroke-width="2.34783" stroke-linecap="round" stroke-linejoin="round"/>
</svg>
