<svg width="54" height="54" viewBox="0 0 54 54" fill="none" xmlns="http://www.w3.org/2000/svg">
<path fill-rule="evenodd" clip-rule="evenodd" d="M47.6517 38.9562C47.6517 43.7583 43.7561 47.6517 38.9584 47.6517C34.1541 47.6517 30.2607 43.7583 30.2607 38.9562C30.2607 34.152 34.1541 30.2607 38.9584 30.2607C43.7561 30.2607 47.6517 34.152 47.6517 38.9562V38.9562Z" stroke="#2FACDF" stroke-width="2.17387" stroke-linejoin="round"/>
<path d="M45.1045 45.1035L52 51.999" stroke="#2FACDF" stroke-width="2.17387" stroke-linecap="round" stroke-linejoin="round"/>
<path d="M24.6191 41.1297H6.34774C3.94562 41.1297 2 39.1819 2 36.7819V6.34774C2 3.94779 3.94562 2 6.34774 2H47.6513C50.0513 2 51.9991 3.94779 51.9991 6.34774V36.7819" stroke="#2FACDF" stroke-width="2.17387" stroke-linecap="round" stroke-linejoin="round"/>
<path d="M2 12.8691H51.9991" stroke="#2FACDF" stroke-width="2.17387" stroke-linecap="round" stroke-linejoin="round"/>
<path fill-rule="evenodd" clip-rule="evenodd" d="M10.6954 7.43459C10.6954 8.03458 10.2062 8.52153 9.60842 8.52153C9.00626 8.52153 8.52148 8.03458 8.52148 7.43459C8.52148 6.8346 9.00626 6.34766 9.60842 6.34766C10.2062 6.34766 10.6954 6.8346 10.6954 7.43459V7.43459Z" stroke="#2FACDF" stroke-width="2.17387" stroke-linecap="round" stroke-linejoin="round"/>
<path fill-rule="evenodd" clip-rule="evenodd" d="M17.2178 7.43459C17.2178 8.03458 16.7287 8.52153 16.1309 8.52153C15.5287 8.52153 15.0439 8.03458 15.0439 7.43459C15.0439 6.8346 15.5287 6.34766 16.1309 6.34766C16.7287 6.34766 17.2178 6.8346 17.2178 7.43459V7.43459Z" stroke="#2FACDF" stroke-width="2.17387" stroke-linecap="round" stroke-linejoin="round"/>
<path fill-rule="evenodd" clip-rule="evenodd" d="M23.7393 7.43459C23.7393 8.03458 23.2502 8.52153 22.6524 8.52153C22.0524 8.52153 21.5654 8.03458 21.5654 7.43459C21.5654 6.8346 22.0524 6.34766 22.6524 6.34766C23.2502 6.34766 23.7393 6.8346 23.7393 7.43459V7.43459Z" stroke="#2FACDF" stroke-width="2.17387" stroke-linecap="round" stroke-linejoin="round"/>
<path d="M8.55566 19.3906H17.149" stroke="#2FACDF" stroke-width="2.17387" stroke-linecap="round" stroke-linejoin="round"/>
<path d="M8.55566 32.4346H12.8012" stroke="#2FACDF" stroke-width="2.17387" stroke-linecap="round" stroke-linejoin="round"/>
<path d="M8.55566 25.9131H19.3229" stroke="#2FACDF" stroke-width="2.17387" stroke-linecap="round" stroke-linejoin="round"/>
<path d="M17.251 32.4346H25.8443" stroke="#2FACDF" stroke-width="2.17387" stroke-linecap="round" stroke-linejoin="round"/>
<path d="M23.7734 25.9131H34.5406" stroke="#2FACDF" stroke-width="2.17387" stroke-linecap="round" stroke-linejoin="round"/>
<path d="M21.5986 19.3906H32.4006" stroke="#2FACDF" stroke-width="2.17387" stroke-linecap="round" stroke-linejoin="round"/>
<path d="M36.8506 19.3906H45.4787" stroke="#2FACDF" stroke-width="2.17387" stroke-linecap="round" stroke-linejoin="round"/>
<path d="M39.0244 25.9131H45.4786" stroke="#2FACDF" stroke-width="2.17387" stroke-linecap="round" stroke-linejoin="round"/>
</svg>
