<svg width="54" height="51" viewBox="0 0 54 51" fill="none" xmlns="http://www.w3.org/2000/svg">
<path fill-rule="evenodd" clip-rule="evenodd" d="M52 47.2391C52 48.4391 51.0283 49.413 49.8261 49.413H4.17391C2.97174 49.413 2 48.4391 2 47.2391V3.76083C2 2.56083 2.97174 1.58691 4.17391 1.58691H49.8261C51.0283 1.58691 52 2.56083 52 3.76083V47.2391V47.2391Z" stroke="#2FACDF" stroke-width="2.17391" stroke-linecap="round" stroke-linejoin="round"/>
<path fill-rule="evenodd" clip-rule="evenodd" d="M31.348 12.4562C31.348 14.8562 29.4002 16.8041 27.0002 16.8041C24.6002 16.8041 22.6523 14.8562 22.6523 12.4562C22.6523 10.0562 24.6002 8.1084 27.0002 8.1084C29.4002 8.1084 31.348 10.0562 31.348 12.4562V12.4562Z" stroke="#2FACDF" stroke-width="2.17391" stroke-linecap="round" stroke-linejoin="round"/>
<path d="M31.3438 12.4561H45.5242" stroke="#2FACDF" stroke-width="2.17391" stroke-linecap="round" stroke-linejoin="round"/>
<path d="M8.56641 12.4561H22.6447" stroke="#2FACDF" stroke-width="2.17391" stroke-linecap="round" stroke-linejoin="round"/>
<path fill-rule="evenodd" clip-rule="evenodd" d="M22.6517 25.5002C22.6517 27.9002 20.7039 29.848 18.3039 29.848C15.9039 29.848 13.9561 27.9002 13.9561 25.5002C13.9561 23.1002 15.9039 21.1523 18.3039 21.1523C20.7039 21.1523 22.6517 23.1002 22.6517 25.5002V25.5002Z" stroke="#2FACDF" stroke-width="2.17391" stroke-linecap="round" stroke-linejoin="round"/>
<path d="M22.6436 25.5H45.5218" stroke="#2FACDF" stroke-width="2.17391" stroke-linecap="round" stroke-linejoin="round"/>
<path d="M8.56641 25.5H13.949" stroke="#2FACDF" stroke-width="2.17391" stroke-linecap="round" stroke-linejoin="round"/>
<path fill-rule="evenodd" clip-rule="evenodd" d="M27.0003 38.5431C27.0003 40.9431 25.0525 42.891 22.6525 42.891C20.2525 42.891 18.3047 40.9431 18.3047 38.5431C18.3047 36.1431 20.2525 34.1953 22.6525 34.1953C25.0525 34.1953 27.0003 36.1431 27.0003 38.5431V38.5431Z" stroke="#2FACDF" stroke-width="2.17391" stroke-linecap="round" stroke-linejoin="round"/>
<path d="M26.9912 38.5439H45.5216" stroke="#2FACDF" stroke-width="2.17391" stroke-linecap="round" stroke-linejoin="round"/>
<path d="M8.56641 38.5439H18.3034" stroke="#2FACDF" stroke-width="2.17391" stroke-linecap="round" stroke-linejoin="round"/>
</svg>
