<svg width="54" height="54" viewBox="0 0 54 54" fill="none" xmlns="http://www.w3.org/2000/svg">
<path d="M9.6087 15.2812V18.3052L4.08913 19.8812C2.9413 20.2117 2 21.4573 2 22.653V23.7399H13.9565" stroke="#2FACDF" stroke-width="2.17391" stroke-linejoin="round"/>
<path d="M16.1301 15.2129V18.3042L21.6474 19.8803C22.7974 20.2107 23.7387 21.4564 23.7387 22.652V23.739H11.7822" stroke="#2FACDF" stroke-width="2.17391" stroke-linejoin="round"/>
<path fill-rule="evenodd" clip-rule="evenodd" d="M19.3911 9.11185C19.3911 13.0401 16.4694 16.2227 12.8694 16.2227C9.26722 16.2227 6.34766 13.0401 6.34766 9.11185C6.34766 5.18358 9.26722 2.00098 12.8694 2.00098C16.4694 2.00098 19.3911 5.18358 19.3911 9.11185V9.11185Z" stroke="#2FACDF" stroke-width="2.17391" stroke-linejoin="round"/>
<path d="M19.3226 7.8656C18.2357 8.95256 15.127 8.90038 13.9552 6.71777C11.7813 8.89169 8.24871 8.89169 6.49219 7.65038" stroke="#2FACDF" stroke-width="2.17391" stroke-linejoin="round"/>
<path d="M37.8694 15.2812V18.3052L32.3499 19.8812C31.202 20.2117 30.2607 21.4573 30.2607 22.653V23.7399H42.2173" stroke="#2FACDF" stroke-width="2.17391" stroke-linejoin="round"/>
<path d="M44.3918 15.2471V18.3036L49.9092 19.8819C51.0592 20.2101 52.0005 21.4558 52.0005 22.6514V23.7384H40.0439" stroke="#2FACDF" stroke-width="2.17391" stroke-linejoin="round"/>
<path fill-rule="evenodd" clip-rule="evenodd" d="M47.6519 9.11185C47.6519 13.0401 44.7301 16.2227 41.1301 16.2227C37.528 16.2227 34.6084 13.0401 34.6084 9.11185C34.6084 5.18358 37.528 2.00098 41.1301 2.00098C44.7301 2.00098 47.6519 5.18358 47.6519 9.11185V9.11185Z" stroke="#2FACDF" stroke-width="2.17391" stroke-linejoin="round"/>
<path d="M47.5508 7.85908C46.4638 8.94603 43.3899 8.90038 42.2181 6.71777C40.0442 8.89169 36.5116 8.89169 34.7529 7.65038" stroke="#2FACDF" stroke-width="2.17391" stroke-linejoin="round"/>
<path d="M23.7396 43.542V46.5659L18.22 48.142C17.0722 48.4724 16.1309 49.7181 16.1309 50.9137V52.0007H28.0874" stroke="#2FACDF" stroke-width="2.17391" stroke-linejoin="round"/>
<path d="M30.2609 43.542V46.5659L35.7783 48.142C36.9283 48.4724 37.8696 49.7181 37.8696 50.9137V52.0007H25.9131" stroke="#2FACDF" stroke-width="2.17391" stroke-linejoin="round"/>
<path fill-rule="evenodd" clip-rule="evenodd" d="M33.522 37.3726C33.522 41.3008 30.6003 44.4835 27.0003 44.4835C23.3981 44.4835 20.4785 41.3008 20.4785 37.3726C20.4785 33.4443 23.3981 30.2617 27.0003 30.2617C30.6003 30.2617 33.522 33.4443 33.522 37.3726V37.3726Z" stroke="#2FACDF" stroke-width="2.17391" stroke-linejoin="round"/>
<path d="M33.4209 36.0655C32.3339 37.1524 29.26 37.1611 28.0883 34.9785C25.9144 37.1524 22.3817 37.1524 20.623 35.9133" stroke="#2FACDF" stroke-width="2.17391" stroke-linejoin="round"/>
<path d="M9.6084 28.0869L15.0432 33.5217" stroke="#2FACDF" stroke-width="2.17391" stroke-linecap="round" stroke-linejoin="round"/>
<path d="M44.3908 28.0869L38.9561 33.5217" stroke="#2FACDF" stroke-width="2.17391" stroke-linecap="round" stroke-linejoin="round"/>
</svg>
