<svg width="64" height="51" viewBox="0 0 64 51" fill="none" xmlns="http://www.w3.org/2000/svg">
<path d="M2 12.4561H51.5652" stroke="#2FACDF" stroke-width="2.6087" stroke-linecap="round" stroke-linejoin="round"/>
<path fill-rule="evenodd" clip-rule="evenodd" d="M9.82583 5.93457C9.10583 5.93457 8.52148 6.51892 8.52148 7.23892C8.52148 7.95892 9.10583 8.54327 9.82583 8.54327C10.5458 8.54327 11.1302 7.95892 11.1302 7.23892C11.1302 6.51892 10.5458 5.93457 9.82583 5.93457" fill="#2FACDF"/>
<path fill-rule="evenodd" clip-rule="evenodd" d="M15.0436 5.93457C14.3236 5.93457 13.7393 6.51892 13.7393 7.23892C13.7393 7.95892 14.3236 8.54327 15.0436 8.54327C15.7636 8.54327 16.348 7.95892 16.348 7.23892C16.348 6.51892 15.7636 5.93457 15.0436 5.93457" fill="#2FACDF"/>
<path fill-rule="evenodd" clip-rule="evenodd" d="M20.2604 5.93457C19.5404 5.93457 18.9561 6.51892 18.9561 7.23892C18.9561 7.95892 19.5404 8.54327 20.2604 8.54327C20.9804 8.54327 21.5648 7.95892 21.5648 7.23892C21.5648 6.51892 20.9804 5.93457 20.2604 5.93457" fill="#2FACDF"/>
<path fill-rule="evenodd" clip-rule="evenodd" d="M51.5652 33.3258C51.5652 36.2058 49.233 38.5432 46.3478 38.5432H7.21739C4.33739 38.5432 2 36.2058 2 33.3258V7.23888C2 4.35888 4.33739 2.02148 7.21739 2.02148H46.3478C49.233 2.02148 51.5652 4.35888 51.5652 7.23888V33.3258V33.3258Z" stroke="#2FACDF" stroke-width="2.6087" stroke-linecap="round" stroke-linejoin="round"/>
<path d="M51.5656 7.23926C54.4508 7.23926 56.783 9.57665 56.783 12.4566V38.5436C56.783 41.4236 54.4508 43.761 51.5656 43.761H12.4352C9.55516 43.761 7.21777 41.4236 7.21777 38.5436" stroke="#2FACDF" stroke-width="2.6087" stroke-linecap="round" stroke-linejoin="round"/>
<path d="M56.7824 12.4561C59.6676 12.4561 61.9998 14.7934 61.9998 17.6734V43.7604C61.9998 46.6404 59.6676 48.9778 56.7824 48.9778H17.652C14.772 48.9778 12.4346 46.6404 12.4346 43.7604" stroke="#2FACDF" stroke-width="2.6087" stroke-linecap="round" stroke-linejoin="round"/>
</svg>
