<svg width="85" height="82" viewBox="0 0 85 82" fill="none" xmlns="http://www.w3.org/2000/svg">
<path d="M77.421 18.1187C76.9391 16.5767 75.7826 15.3238 74.3369 14.5528L44.9423 0.48188C44.1712 0.096376 43.3039 0 42.5329 0C41.7618 0 40.8945 0 40.1235 0.192752L10.7288 14.36C9.28313 15.0347 8.22299 16.2875 7.83749 17.9259L0.609286 49.6337C0.320158 51.272 0.705662 52.9104 1.66942 54.2597L22.0048 79.4138C23.1613 80.5704 24.7997 81.3414 26.4381 81.4377H58.8204C60.5552 81.6305 62.1936 80.8595 63.2537 79.4138L83.589 54.2597C84.5528 52.9104 84.9383 51.272 84.7456 49.6337L77.421 18.1187Z" fill="#326DE6"/>
<path d="M72.8911 48.3809C72.7947 48.3809 72.6983 48.3809 72.6983 48.2846C72.6983 48.1882 72.5056 48.1882 72.3128 48.1882C71.9273 48.0918 71.5418 48.0918 71.1563 48.0918C70.9636 48.0918 70.7708 48.0918 70.5781 47.9954H70.4817C69.4216 47.8991 68.265 47.7063 67.2049 47.4172C66.9158 47.3208 66.6267 47.0317 66.5303 46.7425C66.6267 46.7425 66.5303 46.7425 66.5303 46.7425L65.7593 46.5498C66.1448 43.7549 65.952 40.8636 65.3738 38.0687C64.6991 35.2738 63.5426 32.5753 62.0006 30.1659L62.5789 29.5876V29.4912C62.5789 29.2021 62.6752 28.8166 62.868 28.6239C63.7354 27.8528 64.6028 27.2746 65.5665 26.6963C65.7593 26.6 65.952 26.5036 66.1448 26.4072C66.5303 26.2145 66.8194 26.0217 67.2049 25.829C67.3013 25.7326 67.3977 25.7326 67.494 25.6362C67.5904 25.5398 67.494 25.5398 67.494 25.4434C68.3614 24.7688 68.5542 23.6123 67.8795 22.7449C67.5904 22.3594 67.0122 22.0703 66.5303 22.0703C66.0484 22.0703 65.5665 22.263 65.181 22.5522L65.0846 22.6485C64.9883 22.7449 64.8919 22.8413 64.7955 22.8413C64.5064 23.1304 64.2173 23.4196 64.0245 23.7087C63.9281 23.9014 63.7354 23.9978 63.639 24.0942C62.9644 24.8652 62.097 25.6362 61.2296 26.2145C61.0368 26.3108 60.8441 26.4072 60.6513 26.4072C60.555 26.4072 60.3622 26.4072 60.2658 26.3108H60.1695L59.3985 26.7927C58.6274 26.0217 57.7601 25.2507 56.9891 24.4797C53.4231 21.6848 48.9898 19.95 44.4602 19.4681L44.3638 18.6971V18.7935C44.0747 18.6007 43.9783 18.3116 43.8819 18.0225C43.8819 16.9624 43.8819 15.9022 44.0747 14.7457V14.6493C44.0747 14.4566 44.171 14.2638 44.171 14.0711C44.2674 13.6856 44.2674 13.3001 44.3638 12.9146V12.3363C44.4602 11.3725 43.6892 10.4088 42.7254 10.3124C42.1471 10.216 41.5689 10.5052 41.087 10.987C40.7015 11.3725 40.5088 11.8544 40.5088 12.3363V12.8182C40.5088 13.2037 40.6051 13.5892 40.7015 13.9747C40.7979 14.1675 40.7979 14.3602 40.7979 14.553V14.6493C40.9906 15.7095 40.9906 16.7696 40.9906 17.9261C40.8943 18.2152 40.7979 18.5044 40.5088 18.6971V18.8899L40.4124 19.6609C39.3522 19.7573 38.2921 19.95 37.1356 20.1428C32.6059 21.1065 28.4617 23.5159 25.2813 26.8891L24.7031 26.5036H24.6067C24.5103 26.5036 24.414 26.6 24.2212 26.6C24.0285 26.6 23.8357 26.5036 23.6429 26.4072C22.7756 25.7326 21.9082 24.9616 21.2335 24.1906C21.1372 23.9978 20.9444 23.9014 20.848 23.8051C20.5589 23.5159 20.3662 23.2268 20.077 22.9377C19.9807 22.8413 19.8843 22.8413 19.7879 22.7449C19.6915 22.6485 19.6915 22.6485 19.6915 22.6485C19.306 22.3594 18.8241 22.1667 18.3423 22.1667C17.764 22.1667 17.2821 22.3594 16.993 22.8413C16.4147 23.7087 16.6075 24.8652 17.3785 25.5398C17.4749 25.5398 17.4749 25.6362 17.4749 25.6362C17.4749 25.6362 17.6676 25.829 17.764 25.829C18.0531 26.0217 18.4386 26.2145 18.8241 26.4072C19.0169 26.5036 19.2097 26.6 19.4024 26.6963C20.3662 27.2746 21.3299 27.8528 22.1009 28.6239C22.2937 28.8166 22.4864 29.2021 22.3901 29.4912V29.3949L22.9683 29.9731C22.8719 30.1659 22.7756 30.2622 22.6792 30.455C19.6915 35.1774 18.4386 40.7672 19.306 46.2607L18.535 46.4534C18.535 46.5498 18.4386 46.5498 18.4386 46.5498C18.3423 46.8389 18.0531 47.0317 17.764 47.2244C16.7039 47.5136 15.6437 47.7063 14.4872 47.8027C14.2945 47.8027 14.1017 47.8027 13.909 47.8991C13.5235 47.8991 13.138 47.9954 12.7525 47.9954C12.6561 47.9954 12.5597 48.0918 12.367 48.0918C12.2706 48.0918 12.2706 48.0918 12.1742 48.1882C11.1141 48.3809 10.4394 49.3447 10.6322 50.4048C10.8249 51.2722 11.6923 51.8505 12.5597 51.7541C12.7525 51.7541 12.8488 51.7541 13.0416 51.6577C13.138 51.6577 13.138 51.6577 13.138 51.5614C13.138 51.465 13.4271 51.5614 13.5235 51.5614C13.909 51.465 14.2945 51.2722 14.5836 51.1758C14.7764 51.0795 14.9691 50.9831 15.1619 50.9831H15.2582C16.3184 50.5976 17.2821 50.3085 18.4386 50.1157H18.535C18.8241 50.1157 19.1133 50.2121 19.306 50.4048C19.4024 50.4048 19.4024 50.5012 19.4024 50.5012L20.2698 50.4048C21.7154 54.8381 24.414 58.7896 28.1726 61.6808C29.04 62.3555 29.811 62.9337 30.7748 63.4156L30.2929 64.0902C30.2929 64.1866 30.3893 64.1866 30.3893 64.1866C30.582 64.4757 30.582 64.8612 30.4856 65.1504C30.1001 66.1141 29.5219 67.0779 28.9436 67.9453V68.0416C28.8473 68.2344 28.7509 68.3308 28.5581 68.5235C28.3654 68.7163 28.1726 69.1018 27.8835 69.4873C27.7871 69.5837 27.7871 69.68 27.6907 69.7764C27.6907 69.7764 27.6907 69.8728 27.5944 69.8728C27.1125 70.8366 27.498 71.9931 28.3654 72.4749C28.5581 72.5713 28.8473 72.6677 29.04 72.6677C29.811 72.6677 30.4856 72.1858 30.8712 71.5112C30.8712 71.5112 30.8712 71.4148 30.9675 71.4148C30.9675 71.3184 31.0639 71.2221 31.1603 71.1257C31.2567 70.7402 31.4494 70.451 31.5458 70.0655L31.7385 69.4873C32.0277 68.4272 32.5095 67.4634 32.9914 66.4996C33.1842 66.2105 33.4733 66.0178 33.7624 65.9214C33.8588 65.9214 33.8588 65.9214 33.8588 65.825L34.2443 65.054C36.9428 66.1141 39.7377 66.596 42.629 66.596C44.3638 66.596 46.0986 66.4033 47.8333 65.9214C48.8935 65.7286 49.9536 65.3431 50.9174 65.054L51.3029 65.7286C51.3992 65.7286 51.3992 65.7286 51.3992 65.825C51.6884 65.9214 51.9775 66.1141 52.1702 66.4033C52.6521 67.367 53.134 68.3308 53.4231 69.3909V69.4873L53.6159 70.0655C53.7123 70.451 53.8086 70.8366 54.0014 71.1257C54.0978 71.2221 54.0978 71.3184 54.1941 71.4148C54.1941 71.4148 54.1941 71.5112 54.2905 71.5112C54.676 72.1858 55.3507 72.6677 56.1217 72.6677C56.4108 72.6677 56.6035 72.5713 56.8927 72.4749C57.2782 72.2822 57.6637 71.8967 57.7601 71.4148C57.8564 70.9329 57.8564 70.451 57.6637 69.9692C57.6637 69.8728 57.5673 69.8728 57.5673 69.8728C57.5673 69.7764 57.4709 69.68 57.3746 69.5837C57.1818 69.1982 56.9891 68.909 56.6999 68.6199C56.6035 68.4272 56.5072 68.3308 56.3144 68.138V67.9453C55.6398 67.0779 55.1579 66.1141 54.7724 65.1504C54.676 64.8612 54.676 64.4757 54.8688 64.1866C54.8688 64.0902 54.9652 64.0902 54.9652 64.0902L54.676 63.3192C59.5912 60.3316 63.3499 55.7055 65.0846 50.2121L65.8557 50.3085C65.952 50.3085 65.952 50.2121 65.952 50.2121C66.1448 50.0193 66.4339 49.923 66.723 49.923H66.8194C67.8795 50.1157 68.9397 50.4048 69.9034 50.7903H69.9998C70.1926 50.8867 70.3853 50.9831 70.5781 50.9831C70.9636 51.1758 71.2527 51.3686 71.6382 51.465C71.7346 51.465 71.831 51.5614 72.0237 51.5614C72.1201 51.5614 72.1201 51.5613 72.2165 51.6577C72.4092 51.7541 72.5056 51.7541 72.6983 51.7541C73.5657 51.7541 74.3367 51.1758 74.6259 50.4048C74.5295 49.3447 73.7585 48.5737 72.8911 48.3809ZM45.0384 45.3933L42.4363 46.6462L39.8341 45.3933L39.1595 42.5984L40.9906 40.2854H43.8819L45.7131 42.5984L45.0384 45.3933ZM60.7477 39.1288C61.2296 41.1527 61.326 43.1766 61.1332 45.2005L51.9775 42.5984C51.1101 42.4056 50.6282 41.5382 50.821 40.6709C50.9174 40.3817 51.0137 40.189 51.2065 39.9962L58.4347 33.4427C59.4948 35.1774 60.2658 37.1049 60.7477 39.1288ZM55.5434 29.8767L47.6406 35.4666C46.9659 35.8521 46.0022 35.7557 45.5203 35.0811C45.3276 34.8883 45.2312 34.6955 45.2312 34.4064L44.6529 24.6724C48.8935 25.1543 52.6521 26.9855 55.5434 29.8767ZM38.0994 24.9616L40.0269 24.5761L39.545 34.2137C39.545 35.0811 38.774 35.7557 37.9066 35.7557C37.6175 35.7557 37.4247 35.6593 37.1356 35.5629L29.1364 29.8767C31.6422 27.4673 34.7262 25.7326 38.0994 24.9616ZM26.3415 33.4427L33.4733 39.8035C34.1479 40.3817 34.2443 41.3455 33.6661 42.0201C33.4733 42.3092 33.2806 42.4056 32.895 42.502L23.5466 45.2005C23.2574 41.1527 24.2212 37.0086 26.3415 33.4427ZM24.7031 49.7302L34.2443 48.0918C35.0153 48.0918 35.7863 48.5737 35.8827 49.3447C35.9791 49.6338 35.9791 50.0193 35.7863 50.3085L32.124 59.1751C28.7509 56.9584 26.0523 53.5852 24.7031 49.7302ZM46.5804 61.6808C45.2312 61.97 43.8819 62.1627 42.4363 62.1627C40.4124 62.1627 38.2921 61.7772 36.3646 61.199L41.087 52.6215C41.5689 52.0432 42.3399 51.8505 43.0145 52.236C43.3037 52.4287 43.4964 52.6215 43.7855 52.9106L48.4116 61.2953C47.8333 61.3917 47.2551 61.4881 46.5804 61.6808ZM58.3383 53.2961C56.8927 55.6091 54.8688 57.633 52.5558 59.0787L48.7971 50.0193C48.6043 49.2483 48.9898 48.4773 49.6645 48.1882C49.9536 48.0918 50.2427 47.9954 50.5319 47.9954L60.1695 49.6338C59.6876 50.9831 59.1093 52.236 58.3383 53.2961Z" fill="white"/>
</svg>
