<svg width="65" height="69" viewBox="0 0 65 69" fill="none" xmlns="http://www.w3.org/2000/svg">
<path d="M61.2589 38.4012C61.2589 32.9162 61.2589 27.4909 61.2589 22.0059C61.2589 20.0981 60.4243 18.9653 58.6357 18.4287C42.4788 13.5399 26.3816 8.59153 10.2248 3.76236C7.72076 2.98731 5.75332 4.4778 5.75332 7.10105C5.75332 14.315 5.75332 21.4693 5.75332 28.6832C5.75332 29.2794 5.81294 30.0545 5.51484 30.5314C5.15713 31.068 4.44169 31.6046 3.8455 31.6046C3.30893 31.6046 2.59349 31.0084 2.17616 30.5314C1.87806 30.1737 1.87806 29.5775 1.87806 29.041C1.87806 21.8866 1.81844 14.7919 1.87806 7.63762C1.93768 1.91416 6.23027 -1.18605 11.7153 0.423672C14.0404 1.07948 16.3656 1.85454 18.6907 2.56997C32.0455 6.62409 45.4002 10.6782 58.7549 14.7323C63.1668 16.0439 64.9553 18.1902 64.9553 22.8406C65.0149 33.3932 65.0149 43.8862 64.9553 54.4388C64.9553 59.3276 61.7955 62.7855 57.5029 62.2489C55.0585 61.9508 52.6737 60.9373 50.3486 60.1623C49.3947 59.8642 49.1562 58.9103 49.4543 57.9563C49.812 56.9428 50.6467 56.6447 51.6006 56.8832C53.0911 57.3005 54.5816 57.7179 56.0721 58.2544C59.2319 59.3276 61.1993 57.9563 61.1993 54.6773V38.4012H61.2589Z" fill="#231815"/>
<path d="M36.3379 45.5552C36.3379 39.5337 36.3379 33.5717 36.3379 27.5502C36.3379 25.5231 37.411 23.9134 39.14 23.3172C40.869 22.6614 42.896 23.0787 43.9095 24.5692C44.5057 25.4635 44.9827 26.6559 44.9827 27.729C45.1019 39.5933 45.0423 51.5171 45.0423 63.3218C45.0423 65.2296 44.3865 66.8393 42.5383 67.674C40.9286 68.3894 39.3785 68.2702 38.0072 67.197C36.7552 66.2431 36.3379 64.8719 36.3379 63.3218V45.5552Z" fill="#231815"/>
<path d="M32.9397 45.8533C32.9397 50.3248 32.9397 54.7962 32.9397 59.2677C32.9397 61.1755 32.0454 62.666 30.1972 63.441C28.5279 64.0968 26.7989 63.9776 25.6065 62.5467C24.8911 61.6525 24.2949 60.3408 24.2949 59.2081C24.1757 50.2055 24.2353 41.203 24.2949 32.2005C24.2949 29.3984 26.1431 27.5502 28.7067 27.6098C31.1511 27.6694 32.9397 29.5772 32.9397 32.2601C32.9397 36.7912 32.9397 41.3819 32.9397 45.8533Z" fill="#231815"/>
<path d="M20.7773 45.6744C20.7773 48.5958 20.7773 51.5171 20.7773 54.3789C20.7773 57.0021 18.8695 58.9696 16.4847 58.9696C14.1 59.0292 12.1921 57.0021 12.1921 54.3789C12.1921 48.5362 12.1921 42.6339 12.1921 36.7912C12.1921 34.1679 13.9211 32.3793 16.3655 32.3197C18.8695 32.2601 20.7773 34.1679 20.7773 36.7315C20.8369 39.7125 20.7773 42.6935 20.7773 45.6744Z" fill="#231815"/>
<path d="M8.615 45.7944V50.5043C8.615 53.0083 6.94565 54.7969 4.56088 54.9757C2.41458 55.095 0.149048 53.2468 0.089429 50.862C-0.0298097 47.4041 -0.0298097 44.0058 0.089429 40.5479C0.149048 38.2227 2.41459 36.3745 4.6205 36.4937C7.00528 36.613 8.615 38.4612 8.67462 40.9652V45.7944H8.615Z" fill="#231815"/>
</svg>
