<svg width="87" height="101" viewBox="0 0 87 101" fill="none" xmlns="http://www.w3.org/2000/svg">
<path d="M3.52434 52.8106V52.7387V41.752H5.93385V53.6557C6.0458 54.615 5.9634 55.5871 5.69153 56.5139C5.41967 57.4407 4.96393 58.3032 4.35149 59.0501C3.21325 60.0319 1.7548 60.5629 0.25174 60.5426L0 58.7444C0.969506 58.745 1.90482 58.3862 2.62527 57.7375C3.27261 56.9823 3.52434 55.9573 3.52434 52.8106ZM21.4938 51.3923C21.4938 52.7409 21.4938 53.9456 21.6016 54.9885H19.4619L19.318 52.8488C18.8705 53.6059 18.2304 54.2309 17.4629 54.6605C16.6954 55.09 15.8279 55.3087 14.9485 55.2942C12.8627 55.2942 10.3813 54.1614 10.3813 49.5402V41.8621H12.7908V49.0547C12.7908 51.5541 13.564 53.2264 15.7397 53.2264C16.1874 53.2312 16.6314 53.1466 17.0459 52.9775C17.4604 52.8084 17.837 52.5582 18.1535 52.2417C18.4701 51.9252 18.7202 51.5486 18.8893 51.1341C19.0584 50.7196 19.143 50.2755 19.1382 49.8279V41.7722H21.5477V51.3203L21.4938 51.3923ZM26.0611 46.1401C26.0611 44.4678 26.0611 43.1013 25.9532 41.8606H28.111L28.2188 44.1082C28.6996 43.2962 29.3917 42.6298 30.2213 42.1801C31.051 41.7305 31.9871 41.5144 32.93 41.5549C36.1306 41.5549 38.5402 44.2341 38.5402 48.226C38.5402 52.9371 35.6451 55.2747 32.5164 55.2747C31.7156 55.3104 30.9191 55.1388 30.204 54.7766C29.489 54.4143 28.8795 53.8736 28.4346 53.2068V60.3993H26.0611V46.1941V46.1401ZM28.4346 49.6465C28.4411 49.9728 28.4773 50.2977 28.5425 50.6175C28.7465 51.4159 29.211 52.1235 29.8623 52.6283C30.5136 53.1331 31.3147 53.4063 32.1388 53.4046C34.6742 53.4046 36.1666 51.3367 36.1666 48.3338C36.1666 45.7086 34.7641 43.4609 32.2287 43.4609C31.2254 43.5431 30.2864 43.9884 29.588 44.7133C28.8895 45.4383 28.4794 46.3931 28.4346 47.3988V49.6465ZM42.8332 41.8486L45.7282 49.5986C46.0338 50.4617 46.3575 51.5046 46.5733 52.2778C46.825 51.4866 47.0947 50.4796 47.4184 49.5446L50.0437 41.8486H52.5791L48.9828 51.1989C47.1846 55.6942 46.0878 58.0138 44.4335 59.4164C43.6003 60.1775 42.5844 60.7101 41.4846 60.9628L40.8912 58.9489C41.6602 58.6962 42.3742 58.2995 42.995 57.7801C43.8722 57.0652 44.5684 56.1534 45.0269 55.1188C45.125 54.9397 45.1919 54.7451 45.2247 54.5434C45.2042 54.3264 45.1496 54.114 45.0629 53.9141L40.1719 41.8126H42.7972L42.8332 41.8486ZM58.9756 38.0762V41.8522H62.428V43.6504H58.9756V50.7351C58.9756 52.3534 59.4431 53.2884 60.7738 53.2884C61.2464 53.2961 61.7179 53.2417 62.1763 53.1266L62.2842 54.9247C61.5968 55.1628 60.8715 55.2726 60.1444 55.2484C59.6629 55.2785 59.1806 55.2041 58.7305 55.0303C58.2805 54.8565 57.8734 54.5874 57.5371 54.2414C56.8047 53.2618 56.4706 52.041 56.6021 50.825V43.6324H54.5522V41.8343H56.638V38.6336L58.9756 38.0762ZM66.8667 48.8392C66.8179 49.449 66.9021 50.0621 67.1134 50.6362C67.3248 51.2103 67.6583 51.7317 68.0909 52.1643C68.5235 52.5969 69.0448 52.9303 69.6189 53.1417C70.193 53.3531 70.8061 53.4373 71.416 53.3885C72.6494 53.416 73.8748 53.1832 75.0122 52.7052L75.4258 54.5033C74.0301 55.0782 72.5293 55.3539 71.0204 55.3125C70.1407 55.3727 69.2584 55.2419 68.4341 54.9291C67.6097 54.6164 66.8627 54.129 66.2444 53.5004C65.6261 52.8718 65.1511 52.117 64.8519 51.2876C64.5527 50.4581 64.4364 49.5739 64.5111 48.6953C64.5111 44.7394 66.8667 41.6107 70.7147 41.6107C75.0302 41.6107 76.1091 45.3867 76.1091 47.7962C76.1322 48.1675 76.1322 48.5398 76.1091 48.9111H66.8127L66.8667 48.8392ZM73.9154 47.041C73.9848 46.5603 73.9503 46.0703 73.8143 45.604C73.6783 45.1377 73.444 44.706 73.127 44.3379C72.8101 43.9698 72.4179 43.674 71.977 43.4703C71.536 43.2666 71.0565 43.1598 70.5708 43.1571C69.5829 43.2286 68.6572 43.6665 67.9753 44.385C67.2934 45.1034 66.9045 46.0507 66.8847 47.041H73.9154ZM79.765 45.9374C79.765 44.391 79.765 43.0604 79.6571 41.8377H81.8149V44.409H81.9228C82.1493 43.6154 82.6172 42.912 83.2617 42.3964C83.9061 41.8809 84.6951 41.5787 85.5191 41.532C85.7458 41.5022 85.9755 41.5022 86.2023 41.532V43.7797C85.9275 43.7478 85.65 43.7478 85.3752 43.7797C84.559 43.8113 83.7821 44.139 83.1898 44.7015C82.5975 45.264 82.2302 46.0229 82.1565 46.8365C82.0893 47.2044 82.0532 47.5774 82.0487 47.9513V54.9461H79.6751V45.9554L79.765 45.9374Z" fill="#4E4E4E"/>
<path d="M78.7088 5.72717C78.7827 6.93518 78.4953 8.13781 77.8832 9.18188C77.2711 10.226 76.3621 11.0642 75.272 11.5899C74.1818 12.1155 72.9599 12.3047 71.7618 12.1334C70.5637 11.9621 69.4438 11.4381 68.5446 10.6281C67.6454 9.81804 67.0077 8.75867 66.7127 7.58492C66.4177 6.41117 66.4787 5.17616 66.8881 4.03725C67.2975 2.89834 68.0366 1.90705 69.0113 1.18968C69.9861 0.472314 71.1523 0.0613356 72.3614 0.00909965C73.1541 -0.0345232 73.9477 0.0789995 74.6964 0.34314C75.4451 0.607279 76.1343 1.01683 76.7241 1.54823C77.314 2.07963 77.7931 2.7224 78.1337 3.43958C78.4743 4.15675 78.6697 4.9342 78.7088 5.72717Z" fill="#767677"/>
<path d="M43.1534 76.1527C26.9703 76.1527 12.7469 70.3447 5.39258 61.7676C8.2461 69.4837 13.3949 76.1404 20.1461 80.8417C26.8972 85.5431 34.9267 88.0633 43.1534 88.0633C51.3802 88.0633 59.4096 85.5431 66.1608 80.8417C72.9119 76.1404 78.0607 69.4837 80.9144 61.7676C73.578 70.3447 59.4086 76.1527 43.1534 76.1527Z" fill="#F37726"/>
<path d="M43.1534 20.3785C59.3367 20.3785 73.56 26.1865 80.9144 34.7635C78.0607 27.0475 72.9119 20.3908 66.1608 15.6894C59.4096 10.9881 51.3802 8.46777 43.1534 8.46777C34.9267 8.46777 26.8972 10.9881 20.1461 15.6894C13.3949 20.3908 8.2461 27.0475 5.39258 34.7635C12.7469 26.1685 26.8984 20.3785 43.1534 20.3785Z" fill="#F37726"/>
<path d="M20.8751 92.844C20.97 94.3656 20.6099 95.881 19.8404 97.1971C19.071 98.5132 17.9272 99.5705 16.5548 100.234C15.1823 100.898 13.6434 101.138 12.1339 100.924C10.6245 100.71 9.21299 100.051 8.07919 99.0323C6.94538 98.0132 6.14064 96.6795 5.76749 95.2014C5.39434 93.7232 5.46966 92.1675 5.98388 90.7323C6.49809 89.2971 7.42791 88.0475 8.65486 87.1426C9.88183 86.2378 11.3504 85.7187 12.8734 85.6515C13.8711 85.5981 14.8696 85.7418 15.8118 86.0745C16.7539 86.4071 17.6213 86.9221 18.3644 87.59C19.1075 88.2579 19.7117 89.0657 20.1425 89.9672C20.5733 90.8687 20.8222 91.8463 20.8751 92.844Z" fill="#9E9E9E"/>
<path d="M7.23185 18.4233C6.35984 18.4474 5.50017 18.2131 4.76096 17.7499C4.02176 17.2867 3.43601 16.6153 3.07738 15.8201C2.71875 15.0248 2.60325 14.1413 2.74542 13.2807C2.88758 12.42 3.28105 11.6206 3.87636 10.9829C4.47166 10.3453 5.24221 9.89788 6.09112 9.697C6.94 9.49612 7.82933 9.55073 8.64729 9.85396C9.46523 10.1572 10.1753 10.6955 10.6881 11.4012C11.2009 12.1069 11.4936 12.9484 11.5294 13.82C11.5635 14.9986 11.1313 16.1431 10.3267 17.0049C9.52207 17.8667 8.40996 18.3764 7.23185 18.4233Z" fill="#616262"/>
</svg>
