<svg width="99" height="71" viewBox="0 0 99 71" fill="none" xmlns="http://www.w3.org/2000/svg">
<path d="M97.6724 26.7608C97.3979 26.532 94.9277 24.6565 89.6212 24.6565C88.2489 24.6565 86.8308 24.7937 85.4584 25.0224C84.452 18.0234 78.6423 14.6382 78.4136 14.4552L76.9955 13.6318L76.0806 14.9585C74.937 16.7425 74.0678 18.7553 73.5646 20.8139C72.6039 24.7937 73.1986 28.5448 75.2114 31.747C72.7869 33.1194 68.8528 33.4396 68.0294 33.4853H3.07091C1.37833 33.4853 0.00597056 34.8577 0.00597056 36.5503C-0.0855203 42.2227 0.875134 47.8951 2.84219 53.2474C5.08371 59.1028 8.42313 63.4486 12.7232 66.1018C17.5722 69.0753 25.4862 70.7679 34.4065 70.7679C38.4321 70.7679 42.4577 70.4019 46.4376 69.67C51.9728 68.6636 57.2792 66.7423 62.174 63.9518C66.1996 61.6188 69.8135 58.6453 72.8784 55.1687C78.0476 49.359 81.1126 42.8631 83.3541 37.0992C83.6743 37.0992 83.9488 37.0992 84.269 37.0992C89.8957 37.0992 93.3723 34.8577 95.2937 32.9364C96.5745 31.747 97.5352 30.2832 98.2214 28.6363L98.6331 27.4469L97.6724 26.7608Z" fill="#0091E2"/>
<path d="M9.10922 31.6104H17.8008C18.2126 31.6104 18.5785 31.2902 18.5785 30.8327V23.056C18.5785 22.6443 18.2583 22.2783 17.8008 22.2783H9.10922C8.69751 22.2783 8.33154 22.5985 8.33154 23.056V30.8327C8.37729 31.2902 8.69751 31.6104 9.10922 31.6104Z" fill="#0091E2"/>
<path d="M21.0946 31.6104H29.7862C30.1979 31.6104 30.5639 31.2902 30.5639 30.8327V23.056C30.5639 22.6443 30.2436 22.2783 29.7862 22.2783H21.0946C20.6829 22.2783 20.3169 22.5985 20.3169 23.056V30.8327C20.3626 31.2902 20.6829 31.6104 21.0946 31.6104Z" fill="#0091E2"/>
<path d="M33.3087 31.6104H42.0003C42.412 31.6104 42.778 31.2902 42.778 30.8327V23.056C42.778 22.6443 42.4578 22.2783 42.0003 22.2783H33.3087C32.897 22.2783 32.531 22.5985 32.531 23.056V30.8327C32.531 31.2902 32.8512 31.6104 33.3087 31.6104Z" fill="#0091E2"/>
<path d="M45.3397 31.6104H54.0313C54.443 31.6104 54.809 31.2902 54.809 30.8327V23.056C54.809 22.6443 54.4888 22.2783 54.0313 22.2783H45.3397C44.928 22.2783 44.562 22.5985 44.562 23.056V30.8327C44.562 31.2902 44.928 31.6104 45.3397 31.6104Z" fill="#0091E2"/>
<path d="M21.0946 20.4942H29.7862C30.1979 20.4942 30.5639 20.1282 30.5639 19.7165V11.9398C30.5639 11.5281 30.2436 11.1621 29.7862 11.1621H21.0946C20.6829 11.1621 20.3169 11.4823 20.3169 11.9398V19.7165C20.3626 20.1282 20.6829 20.4942 21.0946 20.4942Z" fill="#0091E2"/>
<path d="M33.3087 20.4942H42.0003C42.412 20.4942 42.778 20.1282 42.778 19.7165V11.9398C42.778 11.5281 42.4578 11.1621 42.0003 11.1621H33.3087C32.897 11.1621 32.531 11.4823 32.531 11.9398V19.7165C32.531 20.1282 32.8512 20.4942 33.3087 20.4942Z" fill="#0091E2"/>
<path d="M45.3397 20.4942H54.0313C54.443 20.4942 54.809 20.1282 54.809 19.7165V11.9398C54.809 11.5281 54.443 11.1621 54.0313 11.1621H45.3397C44.928 11.1621 44.562 11.4823 44.562 11.9398V19.7165C44.562 20.1282 44.928 20.4942 45.3397 20.4942Z" fill="#0091E2"/>
<path d="M45.3397 9.33206H54.0313C54.443 9.33206 54.809 9.01185 54.809 8.5544V0.777678C54.809 0.365969 54.443 0 54.0313 0H45.3397C44.928 0 44.562 0.320223 44.562 0.777678V8.5544C44.562 8.96611 44.928 9.33206 45.3397 9.33206Z" fill="#0091E2"/>
<path d="M57.4622 31.6104H66.1539C66.5656 31.6104 66.9315 31.2902 66.9315 30.8327V23.056C66.9315 22.6443 66.6113 22.2783 66.1539 22.2783H57.4622C57.0505 22.2783 56.6846 22.5985 56.6846 23.056V30.8327C56.7303 31.2902 57.0505 31.6104 57.4622 31.6104Z" fill="#0091E2"/>
</svg>
