<svg width="85" height="66" viewBox="0 0 85 66" fill="none" xmlns="http://www.w3.org/2000/svg">
<path d="M39.293 62.2935C50.2052 60.3652 59.218 58.7696 59.3215 58.7476L59.5097 58.7077L49.2076 46.4497C43.5414 39.7078 38.9054 34.1656 38.9054 34.1336C38.9054 34.0731 49.5433 4.76947 49.6031 4.66522C49.6231 4.63037 56.8625 17.1329 67.1518 34.9723C76.7849 51.6738 84.7269 65.4442 84.8007 65.5732L84.935 65.8079L52.1938 65.8036L19.4527 65.7994L39.293 62.2935ZM0 58.5554C0 58.5381 4.85433 50.1087 10.7874 39.8233L21.5748 21.1227L34.1463 10.5694C41.0606 4.76501 46.7363 0.0089124 46.7591 0.000238422C46.7819 -0.00843384 46.6909 0.220564 46.557 0.509126C46.4231 0.797687 40.2802 13.9777 32.9061 29.798L19.4988 58.5623L9.7494 58.5745C4.38723 58.5812 0 58.5726 0 58.5554Z" fill="#0089D6"/>
</svg>
