<svg width="77" height="81" viewBox="0 0 77 81" fill="none" xmlns="http://www.w3.org/2000/svg">
<path d="M59.29 5.7746C58.135 5.0046 56.98 4.23461 55.825 3.84961C45.8151 23.0995 27.7202 45.8144 3.46533 58.9043C4.62032 61.9843 6.54531 64.6792 8.85529 67.3742C30.8002 51.2043 48.125 30.4144 59.29 5.7746Z" fill="#3E8EDE"/>
<path d="M55.0547 3.46499C49.6647 1.155 44.2747 0 38.4998 0C16.1699 0 0 17.3249 0 40.0398C0 43.8897 0.385001 47.3547 1.155 50.8197C24.2549 41.9647 44.6597 21.1749 55.0547 3.46499Z" fill="#3E8EDE"/>
<path d="M60.4449 6.16016C50.8199 31.57 35.42 54.6699 15.7852 73.5347C22.3301 78.1547 30.4151 80.4647 38.5 80.0797C60.8299 80.0797 76.9998 62.7548 76.9998 39.6549C76.6148 24.64 70.4548 13.0901 60.4449 6.16016Z" fill="#3E8EDE"/>
</svg>
