<svg width="90" height="71" viewBox="0 0 90 71" fill="none" xmlns="http://www.w3.org/2000/svg">
<path fill-rule="evenodd" clip-rule="evenodd" d="M45 60.9269C20.1473 60.9269 0 47.4338 0 30.7892C0 14.1445 20.1473 0.651367 45 0.651367C69.8529 0.651367 90 14.1445 90 30.7892C90 47.4338 69.8529 60.9269 45 60.9269ZM51.888 12.4342C32.9977 12.4342 17.6841 21.6587 17.6841 33.0377C17.6841 44.4166 32.9977 53.6411 51.888 53.6411C70.7782 53.6411 84.7189 47.3346 84.7189 33.0377C84.7189 18.7453 70.7782 12.4342 51.888 12.4342Z" fill="url(#paint0_linear)"/>
<path fill-rule="evenodd" clip-rule="evenodd" d="M68.5325 47.3305C68.5325 47.3305 71.2561 48.1524 72.8385 48.953C73.3875 49.2309 74.3375 49.7853 75.0227 50.5132C75.6939 51.2261 76.0212 51.9485 76.0212 51.9485L86.7548 70.046L69.4062 70.0537L61.2935 54.8191C61.2935 54.8191 59.6323 51.9648 58.6101 51.1372C57.7574 50.4469 57.3938 50.2011 56.5507 50.2011C55.9639 50.2011 52.4288 50.2011 52.4288 50.2011L52.432 70.0427L37.0803 70.0492V19.3652H67.9085C67.9085 19.3652 81.9496 19.6185 81.9496 32.9773C81.9496 46.3361 68.5325 47.3305 68.5325 47.3305ZM61.8552 30.3593L52.5614 30.3533L52.5568 38.9714L61.8552 38.9684C61.8552 38.9684 66.1611 38.9551 66.1611 34.5845C66.1611 30.126 61.8552 30.3593 61.8552 30.3593Z" fill="url(#paint1_linear)"/>
<defs>
<linearGradient id="paint0_linear" x1="0" y1="0.651367" x2="55.7366" y2="83.8741" gradientUnits="userSpaceOnUse">
<stop stop-color="#CBCED0"/>
<stop offset="1" stop-color="#84838B"/>
</linearGradient>
<linearGradient id="paint1_linear" x1="37.0803" y1="19.3652" x2="87.7585" y2="69.0296" gradientUnits="userSpaceOnUse">
<stop stop-color="#276DC3"/>
<stop offset="1" stop-color="#165CAA"/>
</linearGradient>
</defs>
</svg>
