<svg width="70" height="89" viewBox="0 0 70 89" fill="none" xmlns="http://www.w3.org/2000/svg">
<path fill-rule="evenodd" clip-rule="evenodd" d="M42.8759 29.8832C49.334 29.8832 54.5693 24.6479 54.5693 18.1898C54.5693 11.7317 49.334 6.49635 42.8759 6.49635C36.4178 6.49635 31.1825 11.7317 31.1825 18.1898C31.1825 24.6479 36.4178 29.8832 42.8759 29.8832ZM49.7141 35.0505C56.3712 32.3478 61.0657 25.817 61.0657 18.1898C61.0657 8.14384 52.9218 0 42.8759 0C32.83 0 24.6861 8.14384 24.6861 18.1898C24.6861 22.6306 26.2775 26.6997 28.9211 29.858L14.6017 45.7117C13.3154 45.1415 11.8918 44.8248 10.3942 44.8248C4.65362 44.8248 0 49.4784 0 55.219C0 60.9595 4.65362 65.6131 10.3942 65.6131C16.1347 65.6131 20.7883 60.9595 20.7883 55.219C20.7883 53.3438 20.2918 51.5846 19.423 50.0657L33.9139 34.0222C36.5591 35.5228 39.6175 36.3796 42.8759 36.3796C43.0351 36.3796 43.1938 36.3775 43.3521 36.3735L48.1148 62.304C43.8199 64.7691 40.927 69.4007 40.927 74.708C40.927 82.6013 47.3257 89 55.219 89C63.1122 89 69.5109 82.6013 69.5109 74.708C69.5109 66.8148 63.1122 60.4161 55.219 60.4161C54.9365 60.4161 54.656 60.4243 54.3775 60.4404L49.7141 35.0505ZM55.219 83.1533C59.8832 83.1533 63.6642 79.3722 63.6642 74.708C63.6642 70.0438 59.8832 66.2628 55.219 66.2628C50.5548 66.2628 46.7737 70.0438 46.7737 74.708C46.7737 79.3722 50.5548 83.1533 55.219 83.1533ZM15.5912 55.219C15.5912 58.0892 13.2644 60.4161 10.3942 60.4161C7.52389 60.4161 5.19708 58.0892 5.19708 55.219C5.19708 52.3487 7.52389 50.0219 10.3942 50.0219C13.2644 50.0219 15.5912 52.3487 15.5912 55.219Z" fill="#30A9FF"/>
</svg>
