<svg width="59" height="64" viewBox="0 0 59 64" fill="none" xmlns="http://www.w3.org/2000/svg">
<path d="M24.8005 34.2C36.5005 40.5 40.0005 50 40.1005 64H56.5005C56.1005 43.7 37.5005 32.7 32.1005 29.6C19.8005 22.6 16.4005 13.8 16.4005 0.6V0H0.000458002V0.7C-0.099542 17.2 16.2005 29.5 24.8005 34.2Z" fill="black"/>
<path d="M17.6004 64C17.9004 47.4 28.2004 39.6 37.3004 34.7C47.4004 29.2 58.2004 16.2 58.2004 0.6V0H41.7004V0.7C41.7004 15.4 32.8004 21.6 22.0004 27.8C9.30044 35.5 1.40044 49.1 1.20044 64H17.6004Z" fill="#00ADEE"/>
</svg>
