<svg width="280" height="87" viewBox="0 0 280 87" fill="none" xmlns="http://www.w3.org/2000/svg">
<path d="M43.2745 86.5502C19.504 86.5502 0 67.0462 0 43.2757C0 35.657 2.13325 28.0382 5.79025 21.3337C7.61875 18.591 11.2757 17.372 14.0185 19.2005C17.066 21.029 17.9802 24.686 16.4565 27.4287C13.7137 32.3047 12.19 37.7902 12.19 43.2757C12.19 60.3417 26.2085 74.3602 43.2745 74.3602C46.6267 74.3602 49.3695 77.103 49.3695 80.4552C49.3695 83.8075 46.6267 86.5502 43.2745 86.5502Z" fill="#0470BE"/>
<path d="M75.5774 30.7797C73.4442 30.7797 71.3109 29.5607 70.3967 27.7322C64.9112 17.9802 54.5497 12.19 43.2739 12.19C32.3029 12.19 21.9415 17.9802 16.456 27.7322C14.6275 30.475 10.9705 31.3892 7.92296 29.8655C5.18021 28.037 4.26596 24.38 5.78971 21.3325C13.4085 8.22825 27.7317 0 43.2739 0C58.8162 0 73.1394 8.22825 80.7582 21.942C82.2819 24.9895 81.3677 28.6465 78.6249 30.1702C77.7107 30.475 76.7964 30.7797 75.5774 30.7797Z" fill="#2FACDF"/>
<path d="M43.2737 86.5476C39.9215 86.5476 37.1787 83.8048 37.1787 80.4526C37.1787 77.1003 39.9215 74.3576 43.2737 74.3576C60.3397 74.3576 74.3582 60.3391 74.3582 43.2731C74.3582 37.7876 72.8345 32.6068 70.3965 27.7308C68.8727 24.6833 69.787 21.0263 72.5297 19.5026C75.5772 17.9788 79.2342 18.8931 80.758 21.6358C84.415 28.0356 86.5482 35.6543 86.5482 42.9683C86.5482 67.0436 67.0442 86.5476 43.2737 86.5476Z" fill="#2FB984"/>
<path d="M176.449 42.9668C176.449 68.8705 158.774 85.9365 131.651 85.9365H96.9097V0.301758H131.956C158.774 0.301758 176.449 17.6725 176.449 42.9668ZM161.517 43.2715C161.517 24.6818 149.631 12.7965 131.346 12.7965H111.233V73.7465H131.346C149.631 73.7465 161.517 61.8612 161.517 43.2715Z" fill="#0470BE"/>
<path d="M265.799 85.937L260.008 31.3867L235.019 85.937H227.4L203.02 31.082L197.23 85.937H183.211L193.573 0.302246H201.496L231.362 65.5187L261.227 0.302246H268.846L279.512 85.937H265.799Z" fill="#0470BE"/>
<path d="M17.0279 24.8767C17.0279 28.229 14.2851 30.9717 10.9329 30.9717C7.58064 30.9717 4.83789 28.229 4.83789 24.8767C4.83789 21.5245 7.58064 18.7817 10.9329 18.7817C14.3061 18.7817 17.0279 21.5035 17.0279 24.8767Z" fill="white"/>
<path d="M75.576 30.9717C78.9421 30.9717 81.671 28.2429 81.671 24.8767C81.671 21.5106 78.9421 18.7817 75.576 18.7817C72.2098 18.7817 69.481 21.5106 69.481 24.8767C69.481 28.2429 72.2098 30.9717 75.576 30.9717Z" fill="white"/>
<path d="M43.2737 86.5474C46.6399 86.5474 49.3687 83.8186 49.3687 80.4524C49.3687 77.0862 46.6399 74.3574 43.2737 74.3574C39.9075 74.3574 37.1787 77.0862 37.1787 80.4524C37.1787 83.8186 39.9075 86.5474 43.2737 86.5474Z" fill="white"/>
</svg>
