<svg width="187" height="58" viewBox="0 0 187 58" fill="none" xmlns="http://www.w3.org/2000/svg">
<path d="M29.2229 57.9999C13.4387 57.9999 0.487549 45.0488 0.487549 29.2646C0.487549 24.2056 1.90408 19.1465 4.33242 14.6946C5.54659 12.8733 7.97492 12.0639 9.79618 13.278C11.8198 14.4922 12.4269 16.9206 11.4151 18.7418C9.59382 21.9796 8.58201 25.6221 8.58201 29.2646C8.58201 40.5968 17.8906 49.9055 29.2229 49.9055C31.4489 49.9055 33.2701 51.7267 33.2701 53.9527C33.2701 56.1787 31.4489 57.9999 29.2229 57.9999Z" fill="#0470BE"/>
<path d="M50.6728 20.9671C49.2563 20.9671 47.8397 20.1576 47.2327 18.9435C43.5902 12.4679 36.7099 8.62302 29.2225 8.62302C21.9375 8.62302 15.0572 12.4679 11.4147 18.9435C10.2005 20.7647 7.77217 21.3718 5.74856 20.36C3.9273 19.1458 3.32022 16.7175 4.33203 14.6939C9.39106 5.99232 18.9021 0.528564 29.2225 0.528564C39.5429 0.528564 49.0539 5.99232 54.1129 15.0986C55.1248 17.1222 54.5177 19.5505 52.6964 20.5624C52.0893 20.7647 51.4823 20.9671 50.6728 20.9671Z" fill="#2FACDF"/>
<path d="M29.2224 57.9982C26.9964 57.9982 25.1752 56.177 25.1752 53.951C25.1752 51.725 26.9964 49.9038 29.2224 49.9038C40.5546 49.9038 49.8633 40.5951 49.8633 29.2629C49.8633 25.6204 48.8515 22.1802 47.2326 18.9425C46.2208 16.9188 46.8278 14.4905 48.6491 13.4787C50.6727 12.4669 53.1011 13.074 54.1129 14.8952C56.5412 19.1448 57.9577 24.2039 57.9577 29.0605C57.9577 45.0471 45.0066 57.9982 29.2224 57.9982Z" fill="#2FB984"/>
<path d="M117.654 29.0596C117.654 46.2603 105.917 57.5926 87.9073 57.5926H64.8381V0.729004H88.1096C105.917 0.729004 117.654 12.2636 117.654 29.0596ZM107.739 29.262C107.739 16.9179 99.8466 9.02583 87.7049 9.02583H74.3491V49.4981H87.7049C99.8466 49.4981 107.739 41.606 107.739 29.262Z" fill="#023F79"/>
<path d="M176.984 57.593L173.139 21.3702L156.546 57.593H151.487L135.298 21.1679L131.453 57.593H122.144L129.025 0.72937H134.286L154.118 44.0347L173.949 0.72937H179.008L186.091 57.593H176.984Z" fill="#023F79"/>
<path d="M11.7944 17.0472C11.7944 19.2732 9.97316 21.0945 7.74718 21.0945C5.5212 21.0945 3.69995 19.2732 3.69995 17.0472C3.69995 14.8213 5.5212 13 7.74718 13C9.98709 13 11.7944 14.8073 11.7944 17.0472Z" fill="white"/>
<path d="M50.6719 21.0945C52.9071 21.0945 54.7191 19.2825 54.7191 17.0472C54.7191 14.812 52.9071 13 50.6719 13C48.4366 13 46.6246 14.812 46.6246 17.0472C46.6246 19.2825 48.4366 21.0945 50.6719 21.0945Z" fill="white"/>
<path d="M29.2224 57.9983C31.4576 57.9983 33.2696 56.1863 33.2696 53.9511C33.2696 51.7158 31.4576 49.9038 29.2224 49.9038C26.9872 49.9038 25.1752 51.7158 25.1752 53.9511C25.1752 56.1863 26.9872 57.9983 29.2224 57.9983Z" fill="white"/>
</svg>
