<svg width="321" height="348" viewBox="0 0 321 348" fill="none" xmlns="http://www.w3.org/2000/svg">
<path d="M216.794 53.4937C219.508 58.1943 219.508 63.9856 216.794 68.6861L195.021 106.399C192.307 111.1 187.291 113.995 181.864 113.995L138.317 113.995C132.889 113.995 127.873 111.1 125.159 106.399L103.386 68.6861C100.672 63.9856 100.672 58.1943 103.386 53.4937L125.159 15.7807C127.873 11.0801 132.889 8.18449 138.317 8.18449L181.864 8.1845C187.291 8.1845 192.307 11.0802 195.021 15.7807L216.794 53.4937Z" fill="#2FACDF"/>
<path d="M141.924 47.9412L145.802 57.7412H144.08L143.142 55.3472H139.012L138.088 57.7412H136.366L140.244 47.9412H141.924ZM141.07 49.9012L140.888 50.4332L139.53 53.9332H142.638L141.252 50.4332L141.07 49.9012ZM150.905 47.9412C151.913 47.9412 152.715 48.2212 153.313 48.7812C153.919 49.3319 154.223 50.0599 154.223 50.9652C154.223 51.5905 154.064 52.1365 153.747 52.6032C153.439 53.0699 153.005 53.4152 152.445 53.6392L154.643 57.7412H152.851L150.807 53.9052H149.645V57.7412H148.077V47.9412H150.905ZM150.905 49.4112H149.645V52.5052H150.905C151.427 52.5052 151.843 52.3745 152.151 52.1132C152.468 51.8425 152.627 51.4599 152.627 50.9652C152.627 50.4705 152.473 50.0879 152.165 49.8172C151.857 49.5465 151.437 49.4112 150.905 49.4112ZM159.793 47.9412C160.801 47.9412 161.604 48.2212 162.201 48.7812C162.808 49.3319 163.111 50.0599 163.111 50.9652C163.111 51.5905 162.953 52.1365 162.635 52.6032C162.327 53.0699 161.893 53.4152 161.333 53.6392L163.531 57.7412H161.739L159.695 53.9052H158.533V57.7412H156.965V47.9412H159.793ZM159.793 49.4112H158.533V52.5052H159.793C160.316 52.5052 160.731 52.3745 161.039 52.1132C161.357 51.8425 161.515 51.4599 161.515 50.9652C161.515 50.4705 161.361 50.0879 161.053 49.8172C160.745 49.5465 160.325 49.4112 159.793 49.4112ZM170.586 47.9412L174.464 57.7412H172.742L171.804 55.3472H167.674L166.75 57.7412H165.028L168.906 47.9412H170.586ZM169.732 49.9012L169.55 50.4332L168.192 53.9332H171.3L169.914 50.4332L169.732 49.9012ZM183.236 47.9412L179.442 54.0592V57.7412H177.846V54.0592L174.052 47.9412H175.886L178.28 51.7352L178.63 52.3932L178.994 51.7352L181.402 47.9412H183.236ZM135.959 61.9412V63.4112H132.025V65.9732H135.455V67.4292H132.025V70.2712H135.959V71.7412H130.457V61.9412H135.959ZM146.81 61.9412L143.506 66.7572L146.936 71.7412H145.074L142.428 67.9332L139.81 71.7412H137.948L141.364 66.7572L138.074 61.9412H139.936L142.428 65.5672L144.948 61.9412H146.81ZM152.338 61.9412C153.346 61.9412 154.148 62.2259 154.746 62.7952C155.352 63.3645 155.656 64.1065 155.656 65.0212C155.656 65.9265 155.352 66.6639 154.746 67.2332C154.148 67.7932 153.346 68.0732 152.338 68.0732H150.896V71.7412H149.328V61.9412H152.338ZM152.338 63.4112H150.896V66.6032H152.338C152.86 66.6032 153.276 66.4632 153.584 66.1832C153.901 65.9032 154.06 65.5159 154.06 65.0212C154.06 64.5172 153.906 64.1252 153.598 63.8452C153.29 63.5559 152.87 63.4112 152.338 63.4112ZM160.867 61.9412C161.875 61.9412 162.677 62.2212 163.275 62.7812C163.881 63.3319 164.185 64.0599 164.185 64.9652C164.185 65.5905 164.026 66.1365 163.709 66.6032C163.401 67.0699 162.967 67.4152 162.407 67.6392L164.605 71.7412H162.813L160.769 67.9052H159.607V71.7412H158.039V61.9412H160.867ZM160.867 63.4112H159.607V66.5052H160.867C161.389 66.5052 161.805 66.3745 162.113 66.1132C162.43 65.8425 162.589 65.4599 162.589 64.9652C162.589 64.4705 162.435 64.0879 162.127 63.8172C161.819 63.5465 161.399 63.4112 160.867 63.4112ZM172.429 61.9412V63.4112H168.495V65.9732H171.925V67.4292H168.495V70.2712H172.429V71.7412H166.927V61.9412H172.429ZM177.821 61.7592C178.717 61.7592 179.426 62.0019 179.949 62.4872C180.471 62.9725 180.751 63.6772 180.789 64.6012H179.193C179.183 64.1439 179.048 63.7892 178.787 63.5372C178.535 63.2852 178.199 63.1592 177.779 63.1592C177.368 63.1592 177.041 63.2759 176.799 63.5092C176.565 63.7332 176.449 64.0459 176.449 64.4472C176.449 64.8485 176.579 65.1519 176.841 65.3572C177.111 65.5625 177.597 65.8005 178.297 66.0712C179.314 66.4259 180.033 66.8272 180.453 67.2752C180.882 67.7139 181.097 68.2972 181.097 69.0252C181.097 69.9212 180.803 70.6305 180.215 71.1532C179.627 71.6665 178.871 71.9232 177.947 71.9232C176.892 71.9232 176.075 71.6432 175.497 71.0832C174.927 70.5139 174.633 69.7532 174.615 68.8012H176.197C176.215 69.3612 176.374 69.7905 176.673 70.0892C176.981 70.3879 177.41 70.5372 177.961 70.5372C178.455 70.5372 178.838 70.4112 179.109 70.1592C179.379 69.8979 179.515 69.5572 179.515 69.1372C179.515 68.7639 179.37 68.4605 179.081 68.2272C178.791 67.9845 178.297 67.7465 177.597 67.5132C176.663 67.1865 175.973 66.8085 175.525 66.3792C175.086 65.9405 174.867 65.3385 174.867 64.5732C174.867 63.7519 175.133 63.0799 175.665 62.5572C176.197 62.0252 176.915 61.7592 177.821 61.7592ZM186.354 61.7592C187.25 61.7592 187.959 62.0019 188.482 62.4872C189.005 62.9725 189.285 63.6772 189.322 64.6012H187.726C187.717 64.1439 187.581 63.7892 187.32 63.5372C187.068 63.2852 186.732 63.1592 186.312 63.1592C185.901 63.1592 185.575 63.2759 185.332 63.5092C185.099 63.7332 184.982 64.0459 184.982 64.4472C184.982 64.8485 185.113 65.1519 185.374 65.3572C185.645 65.5625 186.13 65.8005 186.83 66.0712C187.847 66.4259 188.566 66.8272 188.986 67.2752C189.415 67.7139 189.63 68.2972 189.63 69.0252C189.63 69.9212 189.336 70.6305 188.748 71.1532C188.16 71.6665 187.404 71.9232 186.48 71.9232C185.425 71.9232 184.609 71.6432 184.03 71.0832C183.461 70.5139 183.167 69.7532 183.148 68.8012H184.73C184.749 69.3612 184.907 69.7905 185.206 70.0892C185.514 70.3879 185.943 70.5372 186.494 70.5372C186.989 70.5372 187.371 70.4112 187.642 70.1592C187.913 69.8979 188.048 69.5572 188.048 69.1372C188.048 68.7639 187.903 68.4605 187.614 68.2272C187.325 67.9845 186.83 67.7465 186.13 67.5132C185.197 67.1865 184.506 66.8085 184.058 66.3792C183.619 65.9405 183.4 65.3385 183.4 64.5732C183.4 63.7519 183.666 63.0799 184.198 62.5572C184.73 62.0252 185.449 61.7592 186.354 61.7592Z" fill="white"/>
<path d="M216.917 165.349C219.563 169.932 219.563 175.578 216.917 180.161L195.143 217.874C192.497 222.457 187.607 225.281 182.315 225.281L138.768 225.281C133.476 225.281 128.586 222.457 125.94 217.874L104.166 180.161C101.52 175.578 101.52 169.932 104.166 165.349L125.94 127.636C128.586 123.053 133.476 120.229 138.768 120.229L182.315 120.229C187.607 120.229 192.497 123.053 195.143 127.636L216.917 165.349Z" fill="white" stroke="#023F79" stroke-width="0.759622"/>
<path d="M146.397 156.4L141.519 164.266V169H139.467V164.266L134.589 156.4H136.947L140.025 161.278L140.475 162.124L140.943 161.278L144.039 156.4H146.397ZM153.893 156.166C155.777 156.166 157.325 156.784 158.537 158.02C159.749 159.244 160.355 160.798 160.355 162.682C160.355 164.566 159.749 166.132 158.537 167.38C157.325 168.616 155.777 169.234 153.893 169.234C151.997 169.234 150.437 168.616 149.213 167.38C148.001 166.132 147.395 164.566 147.395 162.682C147.395 160.798 148.001 159.244 149.213 158.02C150.437 156.784 151.997 156.166 153.893 156.166ZM157.043 159.37C156.239 158.494 155.189 158.056 153.893 158.056C152.597 158.056 151.541 158.494 150.725 159.37C149.921 160.234 149.519 161.338 149.519 162.682C149.519 164.038 149.921 165.154 150.725 166.03C151.541 166.906 152.597 167.344 153.893 167.344C155.189 167.344 156.239 166.906 157.043 166.03C157.847 165.154 158.249 164.038 158.249 162.682C158.249 161.338 157.847 160.234 157.043 159.37ZM173.286 156.4V163.978C173.286 165.658 172.848 166.954 171.972 167.866C171.096 168.778 169.86 169.234 168.264 169.234C166.668 169.234 165.432 168.778 164.556 167.866C163.68 166.954 163.242 165.658 163.242 163.978V156.4H165.258V163.978C165.258 166.222 166.26 167.344 168.264 167.344C170.256 167.344 171.252 166.222 171.252 163.978V156.4H173.286ZM180.468 156.4C181.764 156.4 182.796 156.76 183.564 157.48C184.344 158.188 184.734 159.124 184.734 160.288C184.734 161.092 184.53 161.794 184.122 162.394C183.726 162.994 183.168 163.438 182.448 163.726L185.274 169H182.97L180.342 164.068H178.848V169H176.832V156.4H180.468ZM180.468 158.29H178.848V162.268H180.468C181.14 162.268 181.674 162.1 182.07 161.764C182.478 161.416 182.682 160.924 182.682 160.288C182.682 159.652 182.484 159.16 182.088 158.812C181.692 158.464 181.152 158.29 180.468 158.29ZM141.974 178.4C143.93 178.4 145.49 178.982 146.654 180.146C147.83 181.298 148.418 182.816 148.418 184.7C148.418 186.596 147.83 188.12 146.654 189.272C145.49 190.424 143.93 191 141.974 191H137.366V178.4H141.974ZM141.974 180.29H139.382V189.11H141.974C143.342 189.11 144.41 188.726 145.178 187.958C145.958 187.178 146.348 186.092 146.348 184.7C146.348 183.308 145.964 182.228 145.196 181.46C144.428 180.68 143.354 180.29 141.974 180.29ZM157.036 178.4L162.022 191H159.808L158.602 187.922H153.292L152.104 191H149.89L154.876 178.4H157.036ZM155.938 180.92L155.704 181.604L153.958 186.104H157.954L156.172 181.604L155.938 180.92ZM172.09 178.4V180.29H167.788V191H165.772V180.29H161.488V178.4H172.09ZM178.706 178.4L183.692 191H181.478L180.272 187.922H174.962L173.774 191H171.56L176.546 178.4H178.706ZM177.608 180.92L177.374 181.604L175.628 186.104H179.624L177.842 181.604L177.608 180.92Z" fill="#023F79"/>
<path d="M118.794 107.426C121.508 112.127 121.508 117.918 118.794 122.619L97.0206 160.332C94.3068 165.032 89.2913 167.928 83.8636 167.928L40.3164 167.928C34.8887 167.928 29.8732 165.032 27.1594 160.332L5.38575 122.619C2.67189 117.918 2.6719 112.127 5.38576 107.426L27.1594 69.7133C29.8732 65.0128 34.8887 62.1171 40.3164 62.1171L83.8636 62.1171C89.2914 62.1171 94.3068 65.0128 97.0206 69.7133L118.794 107.426Z" fill="#023F79"/>
<path d="M48.0178 100.874V110.674H46.4498V103.492H44.3778V102.162C45.1432 102.162 45.7125 102.068 46.0858 101.882C46.4685 101.695 46.7205 101.359 46.8418 100.874H48.0178ZM51.4864 102.05C52.0744 101.144 52.9051 100.692 53.9784 100.692C55.0518 100.692 55.8824 101.144 56.4704 102.05C57.0584 102.955 57.3524 104.192 57.3524 105.76C57.3524 107.337 57.0584 108.583 56.4704 109.498C55.8824 110.403 55.0518 110.856 53.9784 110.856C52.9051 110.856 52.0744 110.403 51.4864 109.498C50.8984 108.583 50.6044 107.337 50.6044 105.76C50.6044 104.192 50.8984 102.955 51.4864 102.05ZM55.3084 103.114C55.0098 102.479 54.5664 102.162 53.9784 102.162C53.3904 102.162 52.9471 102.479 52.6484 103.114C52.3498 103.739 52.2004 104.621 52.2004 105.76C52.2004 106.908 52.3498 107.799 52.6484 108.434C52.9471 109.068 53.3904 109.386 53.9784 109.386C54.5664 109.386 55.0098 109.068 55.3084 108.434C55.6071 107.799 55.7564 106.908 55.7564 105.76C55.7564 104.621 55.6071 103.739 55.3084 103.114ZM60.3888 102.05C60.9768 101.144 61.8074 100.692 62.8808 100.692C63.9541 100.692 64.7848 101.144 65.3728 102.05C65.9608 102.955 66.2548 104.192 66.2548 105.76C66.2548 107.337 65.9608 108.583 65.3728 109.498C64.7848 110.403 63.9541 110.856 62.8808 110.856C61.8074 110.856 60.9768 110.403 60.3888 109.498C59.8008 108.583 59.5068 107.337 59.5068 105.76C59.5068 104.192 59.8008 102.955 60.3888 102.05ZM64.2108 103.114C63.9121 102.479 63.4688 102.162 62.8808 102.162C62.2928 102.162 61.8494 102.479 61.5508 103.114C61.2521 103.739 61.1028 104.621 61.1028 105.76C61.1028 106.908 61.2521 107.799 61.5508 108.434C61.8494 109.068 62.2928 109.386 62.8808 109.386C63.4688 109.386 63.9121 109.068 64.2108 108.434C64.5094 107.799 64.6588 106.908 64.6588 105.76C64.6588 104.621 64.5094 103.739 64.2108 103.114ZM69.2911 102.05C69.8791 101.144 70.7098 100.692 71.7831 100.692C72.8565 100.692 73.6871 101.144 74.2751 102.05C74.8631 102.955 75.1571 104.192 75.1571 105.76C75.1571 107.337 74.8631 108.583 74.2751 109.498C73.6871 110.403 72.8565 110.856 71.7831 110.856C70.7098 110.856 69.8791 110.403 69.2911 109.498C68.7031 108.583 68.4091 107.337 68.4091 105.76C68.4091 104.192 68.7031 102.955 69.2911 102.05ZM73.1131 103.114C72.8145 102.479 72.3711 102.162 71.7831 102.162C71.1951 102.162 70.7518 102.479 70.4531 103.114C70.1545 103.739 70.0051 104.621 70.0051 105.76C70.0051 106.908 70.1545 107.799 70.4531 108.434C70.7518 109.068 71.1951 109.386 71.7831 109.386C72.3711 109.386 72.8145 109.068 73.1131 108.434C73.4118 107.799 73.5611 106.908 73.5611 105.76C73.5611 104.621 73.4118 103.739 73.1131 103.114ZM31.1219 114.692C32.2886 114.692 33.2499 114.976 34.0059 115.546C34.7619 116.115 35.2753 116.899 35.5459 117.898H33.8099C33.3899 116.74 32.4893 116.162 31.1079 116.162C30.1653 116.162 29.3953 116.502 28.7979 117.184C28.2006 117.856 27.9019 118.719 27.9019 119.774C27.9019 120.819 28.2006 121.682 28.7979 122.364C29.4046 123.045 30.1933 123.386 31.1639 123.386C31.9946 123.386 32.6619 123.185 33.1659 122.784C33.6699 122.373 33.9406 121.776 33.9779 120.992H31.3179V119.522H35.6439V120.278C35.6439 121.706 35.2379 122.826 34.4259 123.638C33.6233 124.45 32.5359 124.856 31.1639 124.856C29.7266 124.856 28.5459 124.375 27.6219 123.414C26.7073 122.452 26.2499 121.239 26.2499 119.774C26.2499 118.308 26.7073 117.095 27.6219 116.134C28.5366 115.172 29.7033 114.692 31.1219 114.692ZM43.8793 114.874V116.344H39.9453V118.906H43.3753V120.362H39.9453V123.204H43.8793V124.674H38.3773V114.874H43.8793ZM54.5627 114.874V124.674H53.0087L48.5147 118.15L48.1367 117.534V124.674H46.5687V114.874H48.1087L52.5747 121.384L52.9947 122.042V114.874H54.5627ZM62.1809 114.692C63.6462 114.692 64.8502 115.172 65.7929 116.134C66.7355 117.086 67.2069 118.294 67.2069 119.76C67.2069 121.225 66.7355 122.443 65.7929 123.414C64.8502 124.375 63.6462 124.856 62.1809 124.856C60.7062 124.856 59.4929 124.375 58.5409 123.414C57.5982 122.443 57.1269 121.225 57.1269 119.76C57.1269 118.294 57.5982 117.086 58.5409 116.134C59.4929 115.172 60.7062 114.692 62.1809 114.692ZM64.6309 117.184C64.0055 116.502 63.1889 116.162 62.1809 116.162C61.1729 116.162 60.3515 116.502 59.7169 117.184C59.0915 117.856 58.7789 118.714 58.7789 119.76C58.7789 120.814 59.0915 121.682 59.7169 122.364C60.3515 123.045 61.1729 123.386 62.1809 123.386C63.1889 123.386 64.0055 123.045 64.6309 122.364C65.2562 121.682 65.5689 120.814 65.5689 119.76C65.5689 118.714 65.2562 117.856 64.6309 117.184ZM80.0631 114.874V124.674H78.4951V117.87L78.2151 118.668L75.5691 124.674H74.2671L71.6351 118.668L71.3691 117.87V124.674H69.8011V114.874H71.5651L74.6731 121.664L74.9111 122.266L75.1771 121.664L78.2851 114.874H80.0631ZM88.6488 114.874V116.344H84.7148V118.906H88.1448V120.362H84.7148V123.204H88.6488V124.674H83.1468V114.874H88.6488ZM94.0402 114.692C94.9362 114.692 95.6456 114.934 96.1682 115.42C96.6909 115.905 96.9709 116.61 97.0082 117.534H95.4122C95.4029 117.076 95.2676 116.722 95.0062 116.47C94.7542 116.218 94.4182 116.092 93.9982 116.092C93.5876 116.092 93.2609 116.208 93.0182 116.442C92.7849 116.666 92.6682 116.978 92.6682 117.38C92.6682 117.781 92.7989 118.084 93.0602 118.29C93.3309 118.495 93.8162 118.733 94.5162 119.004C95.5336 119.358 96.2522 119.76 96.6722 120.208C97.1016 120.646 97.3162 121.23 97.3162 121.958C97.3162 122.854 97.0222 123.563 96.4342 124.086C95.8462 124.599 95.0902 124.856 94.1662 124.856C93.1116 124.856 92.2949 124.576 91.7162 124.016C91.1469 123.446 90.8529 122.686 90.8342 121.734H92.4162C92.4349 122.294 92.5936 122.723 92.8922 123.022C93.2002 123.32 93.6296 123.47 94.1802 123.47C94.6749 123.47 95.0576 123.344 95.3282 123.092C95.5989 122.83 95.7342 122.49 95.7342 122.07C95.7342 121.696 95.5896 121.393 95.3002 121.16C95.0109 120.917 94.5162 120.679 93.8162 120.446C92.8829 120.119 92.1922 119.741 91.7442 119.312C91.3056 118.873 91.0862 118.271 91.0862 117.506C91.0862 116.684 91.3522 116.012 91.8842 115.49C92.4162 114.958 93.1349 114.692 94.0402 114.692Z" fill="white"/>
<path d="M315.997 107.426C318.711 112.127 318.711 117.918 315.997 122.619L294.224 160.332C291.51 165.032 286.494 167.928 281.066 167.928L237.519 167.928C232.092 167.928 227.076 165.032 224.362 160.332L202.589 122.619C199.875 117.918 199.875 112.127 202.589 107.426L224.362 69.7133C227.076 65.0128 232.092 62.1171 237.519 62.1171L281.067 62.1171C286.494 62.1171 291.51 65.0128 294.224 69.7133L315.997 107.426Z" fill="#0470BE"/>
<path opacity="0.06" d="M315.997 221.494C318.711 226.194 318.711 231.986 315.997 236.686L294.224 274.399C291.51 279.1 286.494 281.995 281.067 281.995L237.519 281.995C232.092 281.995 227.076 279.1 224.362 274.399L202.589 236.686C199.875 231.986 199.875 226.194 202.589 221.494L224.362 183.781C227.076 179.08 232.092 176.184 237.519 176.184L281.067 176.184C286.494 176.184 291.51 179.08 294.224 183.781L315.997 221.494Z" fill="#2FACDF"/>
<path opacity="0.06" d="M118.614 221.494C121.328 226.194 121.328 231.986 118.614 236.686L96.8408 274.399C94.127 279.1 89.1115 281.995 83.6838 281.995L40.1366 281.995C34.7088 281.995 29.6934 279.1 26.9795 274.399L5.20594 236.686C2.49208 231.986 2.49209 226.194 5.20595 221.494L26.9796 183.781C29.6934 179.08 34.7089 176.184 40.1366 176.184L83.6838 176.184C89.1115 176.184 94.127 179.08 96.8408 183.781L118.614 221.494Z" fill="#2FACDF"/>
<path opacity="0.03" d="M216.615 278.494C219.328 283.194 219.328 288.986 216.615 293.686L194.841 331.399C192.127 336.1 187.112 338.995 181.684 338.995L138.137 338.995C132.709 338.995 127.694 336.1 124.98 331.399L103.206 293.686C100.492 288.986 100.492 283.194 103.206 278.494L124.98 240.781C127.694 236.08 132.709 233.184 138.137 233.184L181.684 233.184C187.112 233.184 192.127 236.08 194.841 240.781L216.615 278.494Z" fill="#2FACDF"/>
<path d="M245.029 109.807C246.196 109.807 247.157 110.092 247.913 110.661C248.669 111.23 249.182 112.014 249.453 113.013H247.717C247.297 111.856 246.396 111.277 245.015 111.277C244.072 111.277 243.302 111.618 242.705 112.299C242.108 112.971 241.809 113.834 241.809 114.889C241.809 115.934 242.108 116.798 242.705 117.479C243.312 118.16 244.1 118.501 245.071 118.501C245.902 118.501 246.569 118.3 247.073 117.899C247.577 117.488 247.848 116.891 247.885 116.107H245.225V114.637H249.551V115.393C249.551 116.821 249.145 117.941 248.333 118.753C247.53 119.565 246.443 119.971 245.071 119.971C243.634 119.971 242.453 119.49 241.529 118.529C240.614 117.568 240.157 116.354 240.157 114.889C240.157 113.424 240.614 112.21 241.529 111.249C242.444 110.288 243.61 109.807 245.029 109.807ZM259.634 109.989V111.459H256.288V119.789H254.72V111.459H251.388V109.989H259.634ZM267.345 109.989V111.459H263.411V114.021H266.841V115.477H263.411V118.319H267.345V119.789H261.843V109.989H267.345ZM278.196 109.989L274.892 114.805L278.322 119.789H276.46L273.814 115.981L271.196 119.789H269.334L272.75 114.805L269.46 109.989H271.322L273.814 113.615L276.334 109.989H278.196Z" fill="white"/>
</svg>
