<svg xmlns="http://www.w3.org/2000/svg">
    <symbol id="logo-gut" width="187" height="58" viewBox="0 0 187 58" fill="none">
        <g>
            <path d="M29.2229 57.9999C13.4387 57.9999 0.487549 45.0488 0.487549 29.2646C0.487549 24.2056 1.90408 19.1465 4.33242 14.6946C5.54659 12.8733 7.97492 12.0639 9.79618 13.278C11.8198 14.4922 12.4269 16.9206 11.4151 18.7418C9.59382 21.9796 8.58201 25.6221 8.58201 29.2646C8.58201 40.5968 17.8906 49.9055 29.2229 49.9055C31.4489 49.9055 33.2701 51.7267 33.2701 53.9527C33.2701 56.1787 31.4489 57.9999 29.2229 57.9999Z" fill="#0470BE"/>
            <path d="M50.6728 20.9671C49.2563 20.9671 47.8397 20.1576 47.2327 18.9435C43.5902 12.4679 36.7099 8.62302 29.2225 8.62302C21.9375 8.62302 15.0572 12.4679 11.4147 18.9435C10.2005 20.7647 7.77217 21.3718 5.74856 20.36C3.9273 19.1458 3.32022 16.7175 4.33203 14.6939C9.39106 5.99232 18.9021 0.528564 29.2225 0.528564C39.5429 0.528564 49.0539 5.99232 54.1129 15.0986C55.1248 17.1222 54.5177 19.5505 52.6964 20.5624C52.0893 20.7647 51.4823 20.9671 50.6728 20.9671Z" fill="#2FACDF"/>
            <path d="M29.2224 57.9982C26.9964 57.9982 25.1752 56.177 25.1752 53.951C25.1752 51.725 26.9964 49.9038 29.2224 49.9038C40.5546 49.9038 49.8633 40.5951 49.8633 29.2629C49.8633 25.6204 48.8515 22.1802 47.2326 18.9425C46.2208 16.9188 46.8278 14.4905 48.6491 13.4787C50.6727 12.4669 53.1011 13.074 54.1129 14.8952C56.5412 19.1448 57.9577 24.2039 57.9577 29.0605C57.9577 45.0471 45.0066 57.9982 29.2224 57.9982Z" fill="#2FB984"/>
            <path d="M117.654 29.0596C117.654 46.2603 105.917 57.5926 87.9073 57.5926H64.8381V0.729004H88.1096C105.917 0.729004 117.654 12.2636 117.654 29.0596ZM107.739 29.262C107.739 16.9179 99.8466 9.02583 87.7049 9.02583H74.3491V49.4981H87.7049C99.8466 49.4981 107.739 41.606 107.739 29.262Z" fill="#023F79"/>
            <path d="M176.984 57.593L173.139 21.3702L156.546 57.593H151.487L135.298 21.1679L131.453 57.593H122.144L129.025 0.72937H134.286L154.118 44.0347L173.949 0.72937H179.008L186.091 57.593H176.984Z" fill="#023F79"/>
            <path d="M11.7944 17.0472C11.7944 19.2732 9.97316 21.0945 7.74718 21.0945C5.5212 21.0945 3.69995 19.2732 3.69995 17.0472C3.69995 14.8213 5.5212 13 7.74718 13C9.98709 13 11.7944 14.8073 11.7944 17.0472Z" fill="white"/>
            <path d="M50.6719 21.0945C52.9071 21.0945 54.7191 19.2825 54.7191 17.0472C54.7191 14.812 52.9071 13 50.6719 13C48.4366 13 46.6246 14.812 46.6246 17.0472C46.6246 19.2825 48.4366 21.0945 50.6719 21.0945Z" fill="white"/>
            <path d="M29.2224 57.9983C31.4576 57.9983 33.2696 56.1863 33.2696 53.9511C33.2696 51.7158 31.4576 49.9038 29.2224 49.9038C26.9872 49.9038 25.1752 51.7158 25.1752 53.9511C25.1752 56.1863 26.9872 57.9983 29.2224 57.9983Z" fill="white"/>
        </g>
    </symbol>


    <symbol id="linkedin" width="48" height="48" viewBox="0 0 48 48">
        <g>
            <rect width="48" height="48" rx="24"/>
            <path d="M37.325 35.3251C35.75 35.2876 34.2125 35.2876 32.6375 35.3251C32.3 35.3251 32.225 35.2501 32.225 34.9126C32.225 32.1376 32.225 29.3251 32.225 26.5501C32.225 25.9126 32.1875 25.2751 32 24.6751C31.4375 22.7251 29.1875 22.0126 27.575 23.3251C26.7125 24.0001 26.375 24.9376 26.375 26.0626C26.375 28.6876 26.375 31.3126 26.375 33.9376C26.375 34.2751 26.3375 34.6126 26.375 34.9876C26.4125 35.2876 26.2625 35.3626 26 35.3251C24.3875 35.3251 22.8125 35.3251 21.2 35.3251C20.9 35.3251 20.825 35.2501 20.825 34.9501C20.8625 32.5876 20.8625 30.2251 20.8625 27.8251C20.8625 24.9001 20.8625 21.9751 20.825 19.0876C20.825 18.7501 20.9 18.6751 21.2 18.6751C22.8125 18.6751 24.3875 18.6751 26 18.6751C26.3 18.6751 26.375 18.7501 26.375 19.0501C26.375 19.6501 26.375 20.2501 26.375 20.9626C26.4875 20.8501 26.525 20.8126 26.5625 20.7751C28.025 18.6376 30.0875 18.0376 32.525 18.4126C35.3375 18.8626 37.1375 20.8126 37.5875 23.8126C37.7 24.5251 37.7375 25.2376 37.7375 25.9501C37.7375 28.9501 37.7375 31.9126 37.7375 34.9126C37.7375 35.2126 37.6625 35.3251 37.325 35.3251Z" fill="white"/>
            <path d="M17.825 27C17.825 29.625 17.825 32.25 17.825 34.875C17.825 35.2125 17.75 35.325 17.4125 35.325C15.8375 35.2875 14.2625 35.325 12.6875 35.325C12.3875 35.325 12.3125 35.25 12.3125 34.95C12.3125 29.6625 12.3125 24.3375 12.3125 19.05C12.3125 18.7875 12.3875 18.675 12.6875 18.675C14.3 18.675 15.9125 18.675 17.525 18.675C17.8625 18.675 17.9 18.7875 17.9 19.0875C17.825 21.7125 17.825 24.3375 17.825 27Z" fill="white"/>
            <path d="M18.0875 14.325C17.7125 15.825 16.175 16.6875 14.4125 16.3875C12.5375 16.0875 11.4875 14.25 12.1625 12.45C12.6125 11.325 13.7 10.65 15.0875 10.6875C17.1875 10.65 18.575 12.3375 18.0875 14.325Z" fill="white"/>
        </g>
    </symbol>

    <symbol id="facebook" width="48" height="48" viewBox="0 0 48 48">
        <g>
            <rect width="48" height="48" rx="24"/>
            <path d="M25.6025 39.9998V25.4031H30.502L31.2355 19.7145H25.6025V16.0825C25.6025 14.4356 26.0599 13.3131 28.4218 13.3131L31.4341 13.3117V8.22391C30.9129 8.15484 29.1249 8 27.0446 8C22.7015 8 19.7281 10.6509 19.7281 15.5194V19.7147H14.8159V25.4033H19.728V40L25.6025 39.9998Z" fill="white"/>

       </g>
    </symbol>

    <symbol id="twitter" width="48" height="48" viewBox="0 0 48 48">
        <g>
            <rect width="48" height="48" rx="24"/>
            <path d="M35.7625 18.8125C35.7625 19.075 35.7625 19.3375 35.7625 19.5625C35.7625 27.325 29.8375 36.2875 19.0375 36.2875C15.7 36.2875 12.625 35.3125 10 33.6625C10.45 33.7 10.9375 33.7375 11.3875 33.7375C14.125 33.7375 16.675 32.8 18.7 31.225C16.1125 31.1875 13.9375 29.4625 13.225 27.1375C13.6 27.2125 13.9375 27.25 14.35 27.25C14.875 27.25 15.4 27.175 15.8875 27.025C13.1875 26.5 11.1625 24.1375 11.1625 21.2875C11.1625 21.25 11.1625 21.25 11.1625 21.2125C11.95 21.6625 12.85 21.925 13.825 21.9625C12.25 20.9125 11.2 19.1125 11.2 17.05C11.2 15.9625 11.5 14.95 11.9875 14.0875C14.875 17.65 19.225 19.975 24.1 20.2375C23.9875 19.825 23.95 19.3375 23.95 18.8875C23.95 15.625 26.575 13 29.8375 13C31.525 13 33.0625 13.7125 34.1125 14.8375C35.4625 14.575 36.7 14.0875 37.8625 13.4125C37.4125 14.8 36.475 15.925 35.275 16.675C36.475 16.525 37.6 16.225 38.65 15.7375C37.9 16.9375 36.925 17.9875 35.7625 18.8125Z" fill="white"/>

        </g>
    </symbol>

    <symbol id="icon1" width="32" height="32" viewBox="0 0 32 32">
        <g>
            <path fill-rule="evenodd" clip-rule="evenodd" d="M26.7661 17.9565H31V14.0435H26.7648C26.4922 12.9126 26.0461 11.1987 25.4565 10.2322L28.4513 7.2387L24.7613 3.5487L21.7652 6.54348C20.8 5.95391 19.0874 5.50913 17.9565 5.23652V1H14.0435V5.23652C12.9126 5.50913 11.1987 5.95391 10.2335 6.54348L7.23739 3.5487L3.54739 7.2387L6.54348 10.2335C5.95391 11.1987 5.50783 12.9126 5.23391 14.0435H1V17.9565H5.23391C5.50783 19.0874 5.95391 20.8013 6.54348 21.7665L3.54739 24.7626L7.23739 28.4513L10.2322 25.4552C11.1987 26.0461 12.9126 26.4922 14.0435 26.7661V31H17.9565V26.7661C19.0874 26.4922 20.8013 26.0461 21.7652 25.4565L24.7626 28.4513L28.4513 24.7626L25.4565 21.7665C26.0461 20.8013 26.4922 19.0874 26.7661 17.9565V17.9565Z" stroke="black" stroke-linecap="round" stroke-linejoin="round"/>
            <path fill-rule="evenodd" clip-rule="evenodd" d="M21.8694 16C21.8694 19.2426 19.2411 21.8696 15.9998 21.8696C12.7585 21.8696 10.1302 19.2426 10.1302 16C10.1302 12.7587 12.7585 10.1304 15.9998 10.1304C19.2411 10.1304 21.8694 12.7587 21.8694 16V16Z" stroke="black" stroke-linecap="round" stroke-linejoin="round"/>
        </g>
    </symbol>

    <symbol id="icon2" width="32" height="32" viewBox="0 0 32 32">
        <g>
            <path fill-rule="evenodd" clip-rule="evenodd" d="M0.5 31.092H5.64643V22.0858H0.5V31.092Z" stroke="black" stroke-linejoin="round"/>
            <path d="M5.64642 29.8054H27.5188C27.5188 27.8755 23.0156 25.9456 17.8692 25.9456H8.86294" stroke="black" stroke-linecap="round" stroke-linejoin="round"/>
            <path d="M5.64642 23.3724H10.1496C13.1757 23.3724 14.6527 25.3023 15.296 25.9456" stroke="black" stroke-linejoin="round"/>
            <path fill-rule="evenodd" clip-rule="evenodd" d="M23.6728 11.7929C23.6728 13.9261 21.9449 15.6527 19.813 15.6527C17.6823 15.6527 15.9531 13.9261 15.9531 11.7929C15.9531 9.66096 17.6823 7.93304 19.813 7.93304C21.9449 7.93304 23.6728 9.66096 23.6728 11.7929V11.7929Z" stroke="black" stroke-linejoin="round"/>
            <path fill-rule="evenodd" clip-rule="evenodd" d="M27.9762 10.0439L30 8.87564L27.4268 4.41883L25.3952 5.59093C24.5306 4.81124 23.5065 4.20396 22.3717 3.83728V1.49951H17.2253V3.83728C16.0918 4.20396 15.0676 4.81124 14.203 5.59093L12.1715 4.41883L9.59827 8.87564L11.6221 10.0439C11.3815 11.1787 11.3661 12.3392 11.6234 13.5435L9.59955 14.7117L12.1728 19.1685L14.2043 17.9951C15.0689 18.7761 16.0918 19.3821 17.2253 19.7488V22.0852H22.3717V19.7488C23.5065 19.3821 24.5294 18.7761 25.394 17.9951L27.4255 19.1685L29.9987 14.7117L27.9749 13.5435C28.2155 12.4164 28.2322 11.2559 27.9762 10.0439V10.0439Z" stroke="black" stroke-linejoin="round"/>
        </g>
    </symbol>

    <symbol id="icon3" width="32" height="32" viewBox="0 0 32 32">
        <g>
            <path fill-rule="evenodd" clip-rule="evenodd" d="M31.3421 28.7037C31.3421 29.4319 30.7524 30.0229 30.0229 30.0229H2.31922C1.58969 30.0229 1 29.4319 1 28.7037V2.31922C1 1.59101 1.58969 1 2.31922 1H30.0229C30.7524 1 31.3421 1.59101 31.3421 2.31922V28.7037V28.7037Z" stroke="black" stroke-linecap="round" stroke-linejoin="round"/>
            <path fill-rule="evenodd" clip-rule="evenodd" d="M18.8095 7.59609C18.8095 9.05251 17.6275 10.2345 16.171 10.2345C14.7146 10.2345 13.5326 9.05251 13.5326 7.59609C13.5326 6.13966 14.7146 4.95764 16.171 4.95764C17.6275 4.95764 18.8095 6.13966 18.8095 7.59609V7.59609Z" stroke="black" stroke-linecap="round" stroke-linejoin="round"/>
            <path d="M18.8064 7.59613H27.4117" stroke="black" stroke-linecap="round" stroke-linejoin="round"/>
            <path d="M4.98438 7.59613H13.5277" stroke="black" stroke-linecap="round" stroke-linejoin="round"/>
            <path fill-rule="evenodd" clip-rule="evenodd" d="M13.5326 15.5115C13.5326 16.9679 12.3506 18.1499 10.8942 18.1499C9.43776 18.1499 8.25574 16.9679 8.25574 15.5115C8.25574 14.0551 9.43776 12.873 10.8942 12.873C12.3506 12.873 13.5326 14.0551 13.5326 15.5115V15.5115Z" stroke="black" stroke-linecap="round" stroke-linejoin="round"/>
            <path d="M13.5277 15.5115H27.4112" stroke="black" stroke-linecap="round" stroke-linejoin="round"/>
            <path d="M4.98438 15.5115H8.25077" stroke="black" stroke-linecap="round" stroke-linejoin="round"/>
            <path fill-rule="evenodd" clip-rule="evenodd" d="M16.1711 23.4268C16.1711 24.8832 14.989 26.0652 13.5326 26.0652C12.0762 26.0652 10.8942 24.8832 10.8942 23.4268C10.8942 21.9704 12.0762 20.7883 13.5326 20.7883C14.989 20.7883 16.1711 21.9704 16.1711 23.4268V23.4268Z" stroke="black" stroke-linecap="round" stroke-linejoin="round"/>
            <path d="M16.1661 23.4268H27.4112" stroke="black" stroke-linecap="round" stroke-linejoin="round"/>
            <path d="M4.98438 23.4268H10.8932" stroke="black" stroke-linecap="round" stroke-linejoin="round"/>
        </g>
    </symbol>

    <symbol id="icon4" width="32" height="32" viewBox="0 0 32 32">
        <g>
            <path d="M1 13.2643L4.70409 18.7799L8.96374 13.679" stroke="black" stroke-linecap="round" stroke-linejoin="round"/>
            <path d="M4.69014 18.7129C3.13912 12.2231 7.32833 5.89015 13.4008 4.45609C17.5953 3.46328 21.7965 4.9505 24.4652 7.96614" stroke="black" stroke-linecap="round" stroke-linejoin="round"/>
            <path d="M30.9999 17.6538L27.2958 12.1356L23.0362 17.2365" stroke="black" stroke-linecap="round" stroke-linejoin="round"/>
            <path d="M27.3102 12.2052C28.8612 18.695 24.672 25.0253 18.5995 26.462C14.405 27.4548 10.2039 25.9663 7.5351 22.952" stroke="black" stroke-linecap="round" stroke-linejoin="round"/>
            <path fill-rule="evenodd" clip-rule="evenodd" d="M16 18.1159C14.5327 18.1159 13.3432 16.9264 13.3432 15.4605C13.3432 13.9905 14.5327 12.8023 16.0027 12.7997C17.4673 12.8023 18.6581 13.9905 18.6581 15.4578C18.6581 16.9264 17.4673 18.1159 16 18.1159V18.1159Z" stroke="black" stroke-linecap="round" stroke-linejoin="round"/>
        </g>
    </symbol>

    <symbol id="logo8034" width="51" height="51" viewBox="0 0 51 51" fill="none">
        <g>
            <path fill-rule="evenodd" clip-rule="evenodd" d="M7.71188 25.0862V25.0809C7.71188 15.5073 15.4939 7.71786 25.06 7.71786C29.767 7.71786 34.0367 9.61041 37.1661 12.6678L42.5485 7.1417C38.0297 2.72793 31.8586 0 25.06 0C11.2446 0 0.00524529 11.247 0.00131132 25.0737L0 25.0849C0 27.2156 1.72636 28.9435 3.85529 28.9435C5.98356 28.9435 7.70992 27.2169 7.71057 25.0862H7.71188Z" fill="#34AF7C"/>
            <path fill-rule="evenodd" clip-rule="evenodd" d="M43.8961 10.0775C43.8961 12.2122 42.1665 13.9427 40.0336 13.9427C37.9007 13.9427 36.1718 12.2122 36.1718 10.0775C36.1718 7.94279 37.9007 6.21167 40.0336 6.21167C42.1665 6.21167 43.8961 7.94279 43.8961 10.0775Z" fill="#023F79"/>
            <path fill-rule="evenodd" clip-rule="evenodd" d="M50.1159 25.0849C50.1159 22.9542 48.3902 21.2263 46.2613 21.2263H25.0579C22.9283 21.2263 21.2026 22.9542 21.2026 25.0849C21.2026 27.2157 22.9283 28.9435 25.0579 28.9435H41.9582C40.1977 36.6627 33.2956 42.4447 25.0579 42.4447C20.36 42.4447 16.0989 40.5587 12.9714 37.5119L7.58777 43.0373C12.1053 47.4418 18.2685 50.1619 25.0579 50.1619C38.8733 50.1619 50.1133 38.9149 50.1159 25.0882V25.0849Z" fill="#34AF7C"/>
            <path fill-rule="evenodd" clip-rule="evenodd" d="M13.9357 40.0714C13.9357 42.2101 12.2034 43.9432 10.0666 43.9432C7.93111 43.9432 6.19885 42.2101 6.19885 40.0714C6.19885 37.9335 7.93111 36.1997 10.0666 36.1997C12.2034 36.1997 13.9357 37.9335 13.9357 40.0714Z" fill="#023F79"/>

        </g>
    </symbol>

    <symbol id="quote" width="33" height="25" viewBox="0 0 33 25" fill="#000">
        <g>
            <path d="M0.953125 17.7969C0.953125 11.9531 3.42188 6.10938 8.35938 0.265625L11.5469 1.39062C9.79688 4.79688 8.73438 8.42188 8.35938 12.2656C10.0469 12.4531 11.4219 13.125 12.4844 14.2812C13.5781 15.4062 14.125 16.8125 14.125 18.5C14.125 20.2812 13.4844 21.7969 12.2031 23.0469C10.9219 24.2969 9.39062 24.9219 7.60938 24.9219C5.67188 24.9219 4.07812 24.2656 2.82812 22.9531C1.57812 21.6406 0.953125 19.9219 0.953125 17.7969ZM19.5156 17.7969C19.5156 11.9219 21.9688 6.07812 26.875 0.265625L30.0625 1.39062C28.3125 4.79688 27.25 8.42188 26.875 12.2656C28.5625 12.4531 29.9375 13.125 31 14.2812C32.0938 15.4062 32.6406 16.8125 32.6406 18.5C32.6406 20.2812 32 21.7969 30.7188 23.0469C29.4375 24.2969 27.9062 24.9219 26.125 24.9219C24.1875 24.9219 22.5938 24.2656 21.3438 22.9531C20.125 21.6406 19.5156 19.9219 19.5156 17.7969Z" fill="#0C0C0C"/>
        </g>
    </symbol>


<symbol id="3" width="48" height="48" viewBox="0 0 48 48">
        <g>

        </g>
    </symbol>

    <symbol id="4" width="48" height="48" viewBox="0 0 48 48">
        <g>

        </g>
    </symbol>
</svg>