<svg width="152" height="24" viewBox="0 0 152 24" fill="none" xmlns="http://www.w3.org/2000/svg">
<path d="M118.264 22.3681V6.29734H114.829C114.829 7.15609 114.829 8.01483 114.829 8.7509C114.338 8.13751 113.847 7.6468 113.234 7.15609C112.13 6.29734 110.78 5.92931 109.431 5.80663C107.959 5.68396 106.609 6.05199 105.382 6.78805C102.315 8.62822 100.966 12.4312 101.825 16.2342C102.438 19.1785 104.033 21.1413 106.487 22.1228C107.713 22.6135 109.063 22.7361 110.412 22.4908C112.007 22.2454 113.479 21.5094 114.583 20.1599C114.706 20.0372 114.829 19.7919 114.951 19.6692C114.951 20.528 114.951 21.5094 114.951 22.3681C115.933 22.3681 118.264 22.3681 118.264 22.3681ZM112.498 18.8105C109.799 20.6506 105.75 19.3012 105.382 15.0075C105.137 13.1673 105.628 11.5725 106.855 10.223C108.327 8.7509 110.044 8.50554 111.762 9.24161C113.479 9.97767 114.338 11.4498 114.706 13.4126C114.706 13.658 114.706 14.026 114.829 14.1487C114.583 16.2342 113.97 17.829 112.498 18.8105Z" fill="#023F79"/>
<path d="M21.3482 12.1849C21.3482 15.1292 20.2441 17.7054 18.404 19.5456C16.5638 21.5084 13.8649 22.6125 10.7979 22.6125C4.66406 22.6125 0.00230744 18.0734 0.00230744 11.8169C-0.12037 5.56031 4.66406 1.02124 10.6753 1.02124C14.1102 1.02124 17.2999 2.61605 19.2627 5.0696V5.31496L17.0545 7.2778H16.8091C15.4597 5.43764 13.2515 4.33354 10.9206 4.33354C6.87226 4.33354 3.55996 7.40048 3.55996 11.9396C3.55996 16.4786 6.6269 19.5456 10.7979 19.5456C12.8835 19.5456 14.6009 18.6868 15.8277 17.5827C16.9318 16.4786 17.5452 15.1292 17.6679 13.657H10.7979V10.7128H20.9802L21.2255 10.9581C21.3482 11.3262 21.3482 11.8169 21.3482 12.1849Z" fill="#023F79"/>
<path d="M26.2553 15.1293C26.5006 18.1962 28.8315 19.9137 31.5304 19.9137C33.2479 19.9137 35.3334 19.1777 36.5602 17.8282H36.8056L38.5231 19.423V19.6684C36.8056 21.8766 33.8613 22.7353 31.4077 22.7353C26.746 22.7353 22.8203 19.5457 22.8203 14.3932C22.8203 9.6088 26.2553 5.92847 31.0397 5.92847C33.3706 5.92847 35.3334 6.78721 36.8056 8.13666C38.2777 9.6088 39.1364 11.6943 39.1364 14.0252C39.1364 14.5159 39.1364 14.8839 39.0138 15.1293H26.2553ZM26.2553 12.6757H35.7015C35.5788 11.5716 35.0881 10.5902 34.4747 9.85415C33.6159 8.99541 32.5118 8.5047 31.0397 8.5047C28.4635 8.62737 26.6233 10.2222 26.2553 12.6757Z" fill="#023F79"/>
<path d="M55.9436 12.676V22.3675H52.3859V12.9213C52.3859 10.4678 50.9138 8.87298 48.4603 8.87298C46.1294 8.87298 44.4119 10.4678 44.4119 12.9213V22.2448H40.8542V6.29675H43.9212V8.38227C45.0253 6.91014 46.8655 5.92872 49.1963 5.92872C53.3674 5.80604 55.9436 8.62762 55.9436 12.676Z" fill="#023F79"/>
<path d="M61.2184 15.1293C61.4638 18.1962 63.7947 19.9137 66.4936 19.9137C68.211 19.9137 70.2966 19.1777 71.5233 17.8282H71.7687L73.4862 19.423V19.6684C71.7687 21.8766 68.8244 22.7353 66.3709 22.7353C61.7091 22.7353 57.7834 19.5457 57.7834 14.3932C57.7834 9.6088 61.2184 5.92847 66.0029 5.92847C68.3337 5.92847 70.2966 6.78721 71.7687 8.13666C73.2408 9.6088 74.0996 11.6943 74.0996 14.0252C74.0996 14.5159 74.0996 14.8839 73.9769 15.1293H61.2184ZM61.2184 12.6757H70.6646C70.5419 11.5716 70.0512 10.5902 69.4378 9.85415C68.5791 8.99541 67.475 8.5047 66.0029 8.5047C63.4266 8.62737 61.5865 10.2222 61.2184 12.6757Z" fill="#023F79"/>
<path d="M75.0811 19.7918V19.5465L76.7985 17.829H77.1666C78.0253 19.0558 79.8655 20.0372 81.583 20.0372C83.1778 20.0372 84.2819 19.3011 84.2819 18.197C84.2819 16.7249 82.6871 16.1115 80.9696 15.4981C78.516 14.6394 75.9398 13.658 75.9398 10.7137C75.9398 8.01478 78.2707 6.05194 81.8283 6.05194C84.1592 6.05194 86.4901 7.15604 87.5942 8.75085V8.9962L85.8767 10.7137H85.6313C84.6499 9.48691 83.1778 8.87353 81.8283 8.87353C80.4789 8.87353 79.4975 9.48692 79.4975 10.591C79.4975 11.6951 80.8469 12.1858 82.6871 13.0446C85.386 14.1487 87.8395 15.2528 87.8395 18.4424C87.8395 21.264 85.386 23.1041 81.7056 23.1041C79.0067 22.7361 76.5532 21.5093 75.0811 19.7918Z" fill="#023F79"/>
<path d="M100.966 21.1404L100.843 21.3857C99.8618 22.1218 98.635 22.6125 97.2856 22.6125C94.3413 22.6125 92.0104 20.895 92.0104 17.092V8.99529H89.3115V6.29638H92.0104V1.38927L95.2 1.02124L95.4454 1.2666V6.29638H100.353V8.99529H95.4454V16.9693C95.4454 18.9322 96.3042 19.6682 97.7763 19.6682C98.3897 19.6682 99.1257 19.4229 99.6164 18.9322L99.8618 19.0549L100.966 21.1404Z" fill="#023F79"/>
<path d="M120.104 14.2705C120.104 9.48612 123.784 5.92847 128.691 5.92847C131.513 5.92847 133.844 7.03257 135.193 8.75005V8.99541L133.23 10.7129H132.985C131.881 9.6088 130.409 8.87273 128.814 8.87273C125.747 8.87273 123.661 11.2036 123.661 14.2705C123.661 17.3375 125.747 19.5457 128.937 19.5457C130.409 19.5457 132.003 19.055 132.985 17.7055H133.23L135.193 19.423V19.6684C133.721 21.3858 131.39 22.49 128.691 22.49C123.661 22.6126 120.104 19.055 120.104 14.2705Z" fill="#023F79"/>
<path d="M152 21.9997L151.877 22.245H148.074L142.677 15.2524L140.836 17.0926V22.1223H137.401V1.26714L140.591 0.899109L140.836 1.14446V13.6576L147.829 6.17425H151.632L151.755 6.4196L145.13 13.2896L152 21.9997Z" fill="#023F79"/>
</svg>
