<svg width="32" height="32" viewBox="0 0 32 32" fill="none" xmlns="http://www.w3.org/2000/svg">
<path fill-rule="evenodd" clip-rule="evenodd" d="M26.7661 17.9565H31V14.0435H26.7648C26.4922 12.9126 26.0461 11.1987 25.4565 10.2322L28.4513 7.2387L24.7613 3.5487L21.7652 6.54348C20.8 5.95391 19.0874 5.50913 17.9565 5.23652V1H14.0435V5.23652C12.9126 5.50913 11.1987 5.95391 10.2335 6.54348L7.23739 3.5487L3.54739 7.2387L6.54348 10.2335C5.95391 11.1987 5.50783 12.9126 5.23391 14.0435H1V17.9565H5.23391C5.50783 19.0874 5.95391 20.8013 6.54348 21.7665L3.54739 24.7626L7.23739 28.4513L10.2322 25.4552C11.1987 26.0461 12.9126 26.4922 14.0435 26.7661V31H17.9565V26.7661C19.0874 26.4922 20.8013 26.0461 21.7652 25.4565L24.7626 28.4513L28.4513 24.7626L25.4565 21.7665C26.0461 20.8013 26.4922 19.0874 26.7661 17.9565V17.9565Z" stroke="black" stroke-linecap="round" stroke-linejoin="round"/>
<path fill-rule="evenodd" clip-rule="evenodd" d="M21.8694 16C21.8694 19.2426 19.2411 21.8696 15.9998 21.8696C12.7585 21.8696 10.1302 19.2426 10.1302 16C10.1302 12.7587 12.7585 10.1304 15.9998 10.1304C19.2411 10.1304 21.8694 12.7587 21.8694 16V16Z" stroke="black" stroke-linecap="round" stroke-linejoin="round"/>
</svg>
