<svg width="51" height="51" viewBox="0 0 51 51" fill="none" xmlns="http://www.w3.org/2000/svg">
<path fill-rule="evenodd" clip-rule="evenodd" d="M7.71188 25.0862V25.0809C7.71188 15.5073 15.4939 7.71786 25.06 7.71786C29.767 7.71786 34.0367 9.61041 37.1661 12.6678L42.5485 7.1417C38.0297 2.72793 31.8586 0 25.06 0C11.2446 0 0.00524529 11.247 0.00131132 25.0737L0 25.0849C0 27.2156 1.72636 28.9435 3.85529 28.9435C5.98356 28.9435 7.70992 27.2169 7.71057 25.0862H7.71188Z" fill="#34AF7C"/>
<path fill-rule="evenodd" clip-rule="evenodd" d="M43.8961 10.0775C43.8961 12.2122 42.1665 13.9427 40.0336 13.9427C37.9007 13.9427 36.1718 12.2122 36.1718 10.0775C36.1718 7.94279 37.9007 6.21167 40.0336 6.21167C42.1665 6.21167 43.8961 7.94279 43.8961 10.0775Z" fill="#023F79"/>
<path fill-rule="evenodd" clip-rule="evenodd" d="M50.1159 25.0849C50.1159 22.9542 48.3902 21.2263 46.2613 21.2263H25.0579C22.9283 21.2263 21.2026 22.9542 21.2026 25.0849C21.2026 27.2157 22.9283 28.9435 25.0579 28.9435H41.9582C40.1977 36.6627 33.2956 42.4447 25.0579 42.4447C20.36 42.4447 16.0989 40.5587 12.9714 37.5119L7.58777 43.0373C12.1053 47.4418 18.2685 50.1619 25.0579 50.1619C38.8733 50.1619 50.1133 38.9149 50.1159 25.0882V25.0849Z" fill="#34AF7C"/>
<path fill-rule="evenodd" clip-rule="evenodd" d="M13.9357 40.0714C13.9357 42.2101 12.2034 43.9432 10.0666 43.9432C7.93111 43.9432 6.19885 42.2101 6.19885 40.0714C6.19885 37.9335 7.93111 36.1997 10.0666 36.1997C12.2034 36.1997 13.9357 37.9335 13.9357 40.0714Z" fill="#023F79"/>
</svg>
