<svg width="33" height="25" viewBox="0 0 33 25" fill="none" xmlns="http://www.w3.org/2000/svg">
<path d="M0.953125 17.7969C0.953125 11.9531 3.42188 6.10938 8.35938 0.265625L11.5469 1.39062C9.79688 4.79688 8.73438 8.42188 8.35938 12.2656C10.0469 12.4531 11.4219 13.125 12.4844 14.2812C13.5781 15.4062 14.125 16.8125 14.125 18.5C14.125 20.2812 13.4844 21.7969 12.2031 23.0469C10.9219 24.2969 9.39062 24.9219 7.60938 24.9219C5.67188 24.9219 4.07812 24.2656 2.82812 22.9531C1.57812 21.6406 0.953125 19.9219 0.953125 17.7969ZM19.5156 17.7969C19.5156 11.9219 21.9688 6.07812 26.875 0.265625L30.0625 1.39062C28.3125 4.79688 27.25 8.42188 26.875 12.2656C28.5625 12.4531 29.9375 13.125 31 14.2812C32.0938 15.4062 32.6406 16.8125 32.6406 18.5C32.6406 20.2812 32 21.7969 30.7188 23.0469C29.4375 24.2969 27.9062 24.9219 26.125 24.9219C24.1875 24.9219 22.5938 24.2656 21.3438 22.9531C20.125 21.6406 19.5156 19.9219 19.5156 17.7969Z" fill="#0C0C0C"/>
</svg>
